<svg id="New_Layer" data-name="New Layer" xmlns="http://www.w3.org/2000/svg" width="104.419" height="104.419" viewBox="0 0 104.419 104.419">
  <g id="Group_1" data-name="Group 1">
    <circle id="Ellipse_3" data-name="Ellipse 3" cx="51.751" cy="51.751" r="51.751" transform="translate(0.459 0.459)" fill="#fff"/>
    <path id="Path_1" data-name="Path 1" d="M52.21,104.419A52.223,52.223,0,0,1,31.887,4.1a52.223,52.223,0,0,1,40.646,96.212,51.881,51.881,0,0,1-20.323,4.1Zm0-103.5A51.292,51.292,0,1,0,103.5,52.21,51.35,51.35,0,0,0,52.21.918Z" fill="#afb2b4"/>
  </g>
  <circle id="Ellipse_4" data-name="Ellipse 4" cx="37.77" cy="37.77" r="37.77" transform="translate(14.44 14.054)" fill="#afb2b4"/>
  <g id="Group_2" data-name="Group 2" transform="translate(5.409 2.105)">
    <path id="Path_2" data-name="Path 2" d="M160.951,39.055a49.806,49.806,0,0,0-7.692.88c-.194.043-.556.119-.81.167s-.642.14-.864.194-.621.146-.891.211-.594.151-.729.189-.4.113-.594.162-.448.124-.567.162l-.621.194c-.842.259-2.537.831-2.834.961-.059.022-.254.1-.432.167s-.394.151-.486.189-.329.14-.534.221-.416.157-.459.184c-.113.049-.394.178-.734.324-.5.216-.594.259-1.862.885-1.134.556-1.7.853-2.4,1.252-.119.065-.335.189-.486.265a3.4,3.4,0,0,0-.351.211,5.348,5.348,0,0,1-.459.275c-.281.151-2.105,1.344-2.753,1.792-.993.691-1.652,1.188-2.753,2.062a51.179,51.179,0,0,0-9.706,10.4c-.281.4-1.263,1.9-1.582,2.4-.151.238-.2.324-.351.594-.043.076-.14.232-.216.351s-.162.275-.2.351-.124.232-.194.351c-.41.713-1.587,3.018-1.959,3.86-.049.1-.119.254-.162.335a.688.688,0,0,0-.07.232,5.015,5.015,0,0,0,.664.8c.362.389,1.074,1.161,1.582,1.706.891.961.934,1,1.215,1.069.448.113.912.227,1.236.308.162.038.686.173,1.161.3.891.232,1.188.308,1.83.453a3.349,3.349,0,0,1,.41.113,1.619,1.619,0,0,0,.281.076c.13.027.47.108.767.189s.556.14.594.14a.7.7,0,0,0,.184-.286c.07-.157.157-.356.2-.443s.124-.286.189-.432c.173-.4,1.026-2.111,1.22-2.456.092-.162.238-.421.318-.567s.178-.318.211-.378.13-.211.211-.335a1.728,1.728,0,0,0,.146-.259,1.5,1.5,0,0,1,.13-.232,37.8,37.8,0,0,1,5.7-7.19,37.022,37.022,0,0,1,5.911-4.869c.718-.48,1.636-1.058,1.808-1.139.043-.022.167-.092.27-.157.173-.1.421-.243,1-.561.351-.194,2.138-1.085,2.429-1.209.151-.065.367-.162.486-.216.448-.194.61-.264,1.107-.459.281-.108.561-.221.621-.248a2.885,2.885,0,0,1,.27-.1c.092-.027.335-.113.54-.189s.453-.162.54-.189.308-.1.486-.162.459-.151.621-.2.421-.119.567-.162c.524-.151,1.085-.3,1.376-.367.162-.038.443-.108.621-.151.615-.146,1.835-.394,2.186-.437.135-.016.448-.07.7-.113a40.8,40.8,0,0,1,11.768,0c.221.043.529.092.675.108.389.049,1.614.3,2.213.443.178.049.421.1.54.124.329.059,2.386.653,2.969.858.092.032.345.124.567.2s.5.178.621.221.265.1.324.119.184.076.27.1c.184.065,1.112.443,1.484.61.135.059.318.14.4.184.437.194,2.267,1.107,2.645,1.323.238.135.491.275.567.313a18.523,18.523,0,0,1,1.63.988.914.914,0,0,0,.173.1c.081,0,2.008,1.366,2.812,1.992a46.182,46.182,0,0,1,4.918,4.54c.815.891,1.976,2.316,2.7,3.32.491.68,1.258,1.8,1.258,1.841a2.538,2.538,0,0,0,.178.281c.194.291.184.275.621,1.009.173.3.335.578.351.621s.135.248.254.459c.194.34,1.139,2.229,1.328,2.645.038.086.157.351.259.583a3.573,3.573,0,0,1,.194.47c0,.1.119.113.34.038a12.016,12.016,0,0,1,1.171-.308c.1-.022.578-.146,1.053-.27s.961-.248,1.08-.275.459-.108.756-.189.626-.162.729-.184c.292-.065.874-.211,1.053-.265.092-.032.259-.076.378-.108.173-.043.3-.151.621-.5.221-.248.626-.68.891-.961s.729-.777,1.026-1.107.583-.632.637-.686c.173-.184.151-.259-.486-1.609-.421-.891-1-2.019-1.409-2.753-.076-.135-.211-.378-.3-.54s-.227-.394-.3-.513-.167-.265-.2-.324c-.07-.124-.173-.3-.5-.847-.259-.421-1.592-2.429-1.787-2.677-.059-.081-.432-.572-.826-1.09a45.417,45.417,0,0,0-4.518-5.182,48.726,48.726,0,0,0-6.181-5.274c-.254-.189-2.618-1.765-2.9-1.938-.146-.086-.34-.205-.432-.259s-.221-.13-.281-.162-.205-.124-.324-.2-.41-.243-.648-.372-.453-.248-.486-.27c-.291-.216-3.627-1.852-4.022-1.97a.814.814,0,0,1-.189-.081c-.081-.065-1.576-.675-2-.82-.086-.027-.211-.076-.27-.1-.254-.113-1.949-.691-2.834-.961l-.621-.194c-.119-.038-.372-.113-.567-.162s-.459-.124-.594-.162c-.3-.092-1.943-.48-2.456-.588-1.1-.227-1.549-.313-2.8-.518-.675-.108-1.992-.27-2.634-.324-.345-.027-.842-.076-1.107-.108-.448-.049-3.768-.173-4.248-.151C162.4,39.006,161.7,39.033,160.951,39.055Zm1.2,2.386c.1.637.221,1.657.254,2.062a7.016,7.016,0,0,0,.254,1.468,5.164,5.164,0,0,0,1.468.07,6.638,6.638,0,0,0,1.808-.108,4.408,4.408,0,0,0,.426-.13c.054-.059-.076-.151-.464-.335-.227-.108-.5-.232-.6-.281a1.619,1.619,0,0,0-.621-.1c-.329,0-.432-.016-.421-.07a1.538,1.538,0,0,1,.588-.632.766.766,0,0,1,.68-.173,2.741,2.741,0,0,1,1.306.5,7.284,7.284,0,0,0,2.04.874,1.043,1.043,0,0,1,.394.157.68.68,0,0,1-.108.3c-.248.426-.227.437.858.556.448.049.858.1.923.119.124.032.162-.005.621-.642a2.451,2.451,0,0,1,.912-.815,4.779,4.779,0,0,1,1.085-.3c.14,0,.243.189.318.567.038.178.1.486.14.686.113.545.1.691-.1.972a3.445,3.445,0,0,1-.621.691c-.022,0-.41-.184-.858-.4a6.859,6.859,0,0,0-.918-.4,1.113,1.113,0,0,0-.4.335l-.308.335-.5-.065c-.281-.038-.82-.1-1.2-.146a4.409,4.409,0,0,1-.793-.135c-.081-.043-.108-.13-.119-.389-.011-.227-.043-.34-.1-.372a5.6,5.6,0,0,0-.7-.13l-.621-.086-.4.13c-.221.076-.572.2-.783.275a9.089,9.089,0,0,1-2.618.281c-.761.038-.848.011-.912-.3-.016-.1-.059-.189-.092-.2s-.14.1-.232.243l-.167.265-.367.032c-.2.022-.529.038-.734.038-.345,0-.383-.011-.578-.189-.254-.227-.308-.232-.453-.049-.092.113-.184.146-.615.211-.275.043-.551.092-.6.108a.323.323,0,0,1-.243-.054c-.135-.086-.146-.086-.254.016a2.8,2.8,0,0,1-1.161.329,2.759,2.759,0,0,0-.426.076,1.266,1.266,0,0,0-.054.265,2.706,2.706,0,0,1-.4,1.144,4.9,4.9,0,0,1-1.3.88,1.673,1.673,0,0,1-.977.221c-.734.027-.885,0-1.161-.232a1.434,1.434,0,0,1-.4-1.215c.005-.761.259-1.889.421-1.889.1,0,.124.1.07.351-.027.119-.076.4-.108.621a.916.916,0,0,0,.065.686c.308.723,1.333.869,2.391.34a2.636,2.636,0,0,0,.982-.7,3.251,3.251,0,0,0-.626-1.236c-.167-.227-.254-.389-.232-.443s.081-.2.13-.345a2.232,2.232,0,0,1,.194-.394l.1-.14.291.394c.351.47.551.61.815.567.1-.016.394-.054.642-.081.594-.076.653-.108.653-.394-.005-.372.464-1.215.491-.891.005.038.011.286.016.556.005.572-.005.567.6.426l.41-.086-.032-.162a1.883,1.883,0,0,0-.113-.335A.293.293,0,0,1,159,44.2c.038-.086.119-.259.173-.383s.135-.232.173-.232.065.011.065.027a8.68,8.68,0,0,0,.227,1.015.369.369,0,0,0,.356.254.283.283,0,0,1,.194.135l.086.135.745-.032a3.657,3.657,0,0,0,.8-.092c.076-.054.059-.286-.059-.82-.043-.178-.13-.626-.194-1s-.151-.8-.189-.955c-.07-.313-.059-.345.34-.923.14-.205.254-.318.3-.3s.1.184.13.416Zm-14.3,2.478c.027.07.173.389.324.707a6.083,6.083,0,0,1,.275.637.587.587,0,0,0,.076.2,14.242,14.242,0,0,1,.545,1.387,5.011,5.011,0,0,1,.113,1.506c-.054.211-.119.173-.264-.146-.076-.151-.232-.491-.356-.756s-.313-.669-.432-.918-.286-.615-.383-.821-.221-.486-.281-.615a.535.535,0,0,1-.054-.486c.038-.135.092-.378.124-.534.043-.221.081-.281.162-.281A.186.186,0,0,1,147.855,43.918Zm31.179.194a2.415,2.415,0,0,1,.238.265c.135.178.211.232.329.232a.279.279,0,0,0,.189-.054c.016-.032.113-.054.211-.054.146,0,.211.049.4.275.119.151.211.3.194.335a1.675,1.675,0,0,1-.594.308,1.116,1.116,0,0,1-.291-.248c-.345-.351-.4-.372-.664-.259l-.216.1-.259-.286a1.861,1.861,0,0,1-.264-.324,2.171,2.171,0,0,1,.621-.329A.209.209,0,0,1,179.034,44.113Zm-33.867.572a2.2,2.2,0,0,0,.718.194,3.465,3.465,0,0,1,.534.092c.065.038.005.426-.13.8l-.108.308.135.275c.07.157.27.513.432.794a3.109,3.109,0,0,1,.5,1.285c.065.286.07.41.027.459a1.952,1.952,0,0,1-.653.34c-.135.054-.345.14-.47.194a1.413,1.413,0,0,1-.275.1,2.685,2.685,0,0,0-.551.238c-.124.059-.135.092-.124.389a5.075,5.075,0,0,1-.27,1.695c-.3.648-.7.81-2.035.826l-.8.011-.027.324a1.384,1.384,0,0,1-.648,1.193,6.933,6.933,0,0,1-2.089.426c-.1-.065.1-.238.318-.275.777-.13,1.123-.475,1.436-1.447a3.172,3.172,0,0,0,.232-1.263c-.043-.486-.162-.556-1.409-.8a.3.3,0,0,1-.2-.146,2.72,2.72,0,0,1-.194-.821c.032-.1.243-.1.545-.027a2.565,2.565,0,0,1,1.916,2.229c.043.227.1.383.146.4a2.208,2.208,0,0,0,.545-.059,2,2,0,0,0,1.188-.653,5.189,5.189,0,0,0,.713-1.447c0-.189-.07-.184-.453-.016a2.7,2.7,0,0,1-.637.167c-.707.07-.9-.227-.95-1.441a2.3,2.3,0,0,1,.076-.966c.265-.734.858-.615,1.825.367.432.443.345.432,1.085.14.837-.329,1-.41,1-.5a3.511,3.511,0,0,0-.448-.9,5.14,5.14,0,0,0-1.069-1.387c-.243-.124-.313-.232-.291-.437.016-.1.038-.313.054-.486C144.795,44.512,144.827,44.5,145.167,44.685Zm31.627,2.084a5.327,5.327,0,0,0-.054.734c0,.394.016.464.119.561.238.221.642.108,1.441-.41.972-.637,1.306-.756,1.614-.567l.173.113v.529c0,.6.054.723.351.82.108.038.437.184.729.329q.88.437,1.215.076a2.035,2.035,0,0,1,.88-.432c.205-.059.135.076-.264.486-.3.308-.372.421-.351.5a2.483,2.483,0,0,0,.912.578.383.383,0,0,1,.178.086c.07.113.232.032.394-.194a.706.706,0,0,1,.318-.275.775.775,0,0,0,.2-.076.865.865,0,0,1,.259-.1c.173-.049.211-.043.238.027.022.049-.011.119-.081.173a1.69,1.69,0,0,0-.5.686c0,.081.081.157.313.281a.84.84,0,0,0,.378.124.893.893,0,0,0,.157-.3c.092-.248.13-.286.448-.448.351-.173.594-.221.594-.113a9.012,9.012,0,0,1-.642,1.2,2.669,2.669,0,0,1-.48.48l-.345.27-.61-.3c-.486-.243-.615-.329-.632-.426s-.059-.13-.345-.162a2.853,2.853,0,0,1-.8-.254c-.6-.281-.826-.448-.847-.642-.016-.14-.027-.146-.3-.13a1.36,1.36,0,0,1-.794-.227,4.366,4.366,0,0,0-.588-.248,1.059,1.059,0,0,1-.513-.41,1.874,1.874,0,0,1-.1-.556c-.032-.47-.113-.6-.362-.6a1.684,1.684,0,0,0-.988.4l-.772.54c-.8.54-1.258.3-1.166-.615a5.854,5.854,0,0,1,.54-1.717.373.373,0,0,1,.124-.1,1.085,1.085,0,0,1-.038.3Zm-10.8.7a1.125,1.125,0,0,1,.275.264,1.611,1.611,0,0,1-.632.491,2.645,2.645,0,0,1-.7-.453c-.043-.043.119-.248.313-.389C165.5,47.2,165.674,47.217,165.993,47.47Zm-27.206,1.047c.054.038.065.13.038.335-.049.432-.065.453-.329.453-.291,0-.491-.07-.556-.2a.765.765,0,0,1,.124-.642A1.024,1.024,0,0,1,138.787,48.518Zm50.369.07a1.111,1.111,0,0,1-.135.313c-.286.491-1.42,2.71-1.56,3.061-.092.216-.086.221.032.351a1.253,1.253,0,0,0,.238.194c.065.038.34.221.61.416,1.463,1.036,1.387.993,1.522.831a1.6,1.6,0,0,0,.092-.648c.022-.545.027-.567.173-.669a.747.747,0,0,1,.189-.108,1.94,1.94,0,0,0,.275-.113c.3-.151.4-.113.4.151a4.044,4.044,0,0,1-.275,1.269,6.047,6.047,0,0,1-1.247,1.285.437.437,0,0,1-.211-.1c-.07-.054-.443-.313-.831-.572s-.847-.583-1.026-.707-.513-.345-.74-.486c-.3-.173-.421-.281-.421-.351a1.758,1.758,0,0,1,.194-.47c.108-.2.313-.583.453-.847s.34-.642.443-.837.3-.545.421-.783.291-.545.367-.686c.167-.318.184-.335.578-.464S189.156,48.474,189.156,48.588Zm2.661,1.652c.264.113.34.227.254.389-.113.216-.227.216-.4.005a.515.515,0,0,0-.648-.178c-.1.076-.1.092-.027.232a2.227,2.227,0,0,0,.47.448,2.941,2.941,0,0,1,.416.367c.081.184-.329.308-.5.157a2.366,2.366,0,0,0-.615-.184,2.989,2.989,0,0,1-.567-.146c-.059-.054.113-.135.3-.135.205,0,.216-.054.059-.27-.216-.286-.038-.518.518-.68a1.131,1.131,0,0,1,.745-.005Zm-54.569,1.646a2.636,2.636,0,0,1,1.765,2.132,2.4,2.4,0,0,0,.162.5.153.153,0,0,1,0,.178.99.99,0,0,0-.059.367,1.488,1.488,0,0,1-.432.945,5.728,5.728,0,0,1-2.246.6c-.13-.049-.086-.173.076-.211a5.42,5.42,0,0,0,.907-.313c.356-.184.653-.815.853-1.835.113-.556.108-.669-.032-.945-.113-.216-.157-.248-.448-.335a2.533,2.533,0,0,0-.6-.1c-.351,0-.437-.032-.524-.211a5.058,5.058,0,0,1-.248-.842c0-.1.426-.059.831.07Zm-4.561.48c.167.14.686.632,1.161,1.1a5.337,5.337,0,0,1,1.614,2.073c.1.3.113.41.049.41-.043,0-.7-.567-2.31-1.992l-.7-.615-.119-.41c-.13-.459-.157-.815-.065-.815A1.442,1.442,0,0,1,132.687,52.366Zm60.787,2.58c.049.059.059.238.038.664a1.732,1.732,0,0,1-.194.9,3.537,3.537,0,0,1-2.229,1.592,1.386,1.386,0,0,1-1.841-.756,6.176,6.176,0,0,1-.632-1.3c0-.205.14-.108.378.254.319.5.416.594.7.734.221.1.335.113,1.269.119.95,0,1.042-.011,1.247-.119.345-.184.367-.238.362-.783a6.083,6.083,0,0,0-.043-.691l-.032-.205.421-.248c.232-.135.437-.248.453-.248S193.436,54.9,193.474,54.947Zm-60.722.329a1.031,1.031,0,0,1,.151.356c.054.254.054.291-.032.351a.353.353,0,0,1-.178.07,1.078,1.078,0,0,0-.318.113.634.634,0,0,0-.335.335,1.276,1.276,0,0,0-.1.318c0,.146.194.221.389.157a6.085,6.085,0,0,0,1.263-.907,3,3,0,0,1,.443-.34.994.994,0,0,1,.119.41l.065.41-.167.2a3.779,3.779,0,0,0-.74,1.414c-.189.713-.167.669-.27.583-.076-.059-.086-.157-.059-.551.027-.529-.027-.626-.248-.432-.318.281-.615.3-.837.049a2.077,2.077,0,0,1-.275-1.911c.275-.61.81-.907,1.134-.626Zm-5.986,5.393c.049.119.14.351.205.513s.135.345.162.4.086.194.13.308a.387.387,0,0,0,.178.221c.054.016.48.049.95.065.648.032.848.054.848.108a4.651,4.651,0,0,1-.7.659c-.615.507-.7.6-.68.718.022.135.086.416.3,1.29a2.456,2.456,0,0,1,.086.48,3.121,3.121,0,0,1-.545-.291c-.281-.178-.648-.4-.815-.5l-.3-.184-.167.1c-.227.13-.891.551-1.074.68-.232.162-.421.221-.421.135,0-.038.1-.459.221-.928l.216-.858-.205-.189c-.113-.1-.432-.378-.707-.61a2.588,2.588,0,0,1-.5-.491c0-.059.184-.081.853-.113.464-.022.891-.059.945-.076a1.021,1.021,0,0,0,.259-.443c.086-.216.184-.448.211-.507.043-.1.173-.432.291-.75.032-.092.049-.1.108-.027A1.174,1.174,0,0,1,126.765,60.668Zm71.432.108c.07.178.189.491.27.7.281.723.157.653,1.2.7.5.022.923.054.945.065.07.043-.081.227-.4.47-.157.124-.443.356-.626.518-.372.324-.4.421-.259.874a3.347,3.347,0,0,1,.259,1.344,1.9,1.9,0,0,1-.367-.205,9.044,9.044,0,0,0-1.242-.767,1.208,1.208,0,0,0-.3.157,13.326,13.326,0,0,1-1.344.815c-.076,0-.07-.1.022-.383.081-.259.232-.853.308-1.231.059-.291.054-.3-.745-.961-.524-.437-.653-.578-.567-.632.022-.011.432-.043.918-.065a3.032,3.032,0,0,0,.928-.1,4.244,4.244,0,0,0,.243-.545c.108-.265.216-.529.243-.588s.086-.2.13-.313c.113-.286.227-.243.383.151Z" transform="translate(-116.282 -39.004)" fill="#262e67" fill-rule="evenodd"/>
    <path id="Path_3" data-name="Path 3" d="M1136.556,146.944c-.286.07-.319.259-.065.372a3.063,3.063,0,0,1,.54.308c.2.135.319.049.27-.194C1137.215,146.977,1137,146.836,1136.556,146.944Z" transform="translate(-1080.39 -141.085)" fill="#262e67" fill-rule="evenodd"/>
    <path id="Path_4" data-name="Path 4" d="M592.335,217.113c-.167.173-.194.443-.065.551a.935.935,0,0,0,.783.016c.324-.167.259-.394-.173-.615C592.61,216.924,592.5,216.935,592.335,217.113Z" transform="translate(-565.631 -207.362)" fill="#262e67" fill-rule="evenodd"/>
    <path id="Path_5" data-name="Path 5" d="M920.537,280.959a1.462,1.462,0,0,0-.659.707c-.173.356-.178.378-.178,1.09a2.147,2.147,0,0,0,.108.972c.259.594.567.831,1.09.831.313,0,.356-.016.524-.178.238-.232.4-.524.324-.6-.038-.038-.146.032-.335.216-.318.308-.486.34-.723.146-.259-.216-.367-.659-.367-1.5a2.191,2.191,0,0,1,.108-.982c.308-.7.788-.594,1.139.248.119.286.183.135.162-.372-.011-.264-.027-.486-.032-.5s-.065.005-.119.032c-.07.043-.157.027-.313-.049A1.159,1.159,0,0,0,920.537,280.959Z" transform="translate(-875.463 -267.867)" fill="#262e67" fill-rule="evenodd"/>
    <path id="Path_6" data-name="Path 6" d="M965.226,281.287a1.48,1.48,0,0,0-.734.761,1.825,1.825,0,0,0-.2.955,2.159,2.159,0,0,0,.092.934c.238.7.513.95,1.053.95a.659.659,0,0,0,.507-.135,1.755,1.755,0,0,0,.551-.88,2.106,2.106,0,0,0,.1-.988,1.836,1.836,0,0,0-.167-.907,1.162,1.162,0,0,0-.443-.551A1.238,1.238,0,0,0,965.226,281.287Zm.47.324c.227.259.259.416.259,1.3a3.694,3.694,0,0,1-.1,1.15c-.13.41-.21.534-.356.572-.205.049-.34-.065-.459-.383a4.74,4.74,0,0,1-.005-2.1C965.193,281.59,965.479,281.363,965.7,281.611Z" transform="translate(-917.642 -268.195)" fill="#262e67" fill-rule="evenodd"/>
    <path id="Path_7" data-name="Path 7" d="M1016.34,284.123a4.026,4.026,0,0,1-.059,1.3,10.076,10.076,0,0,0-.081,1.112c0,.5.005.54.162.756a.688.688,0,0,0,.68.329c.524,0,.885-.615.885-1.517a3.174,3.174,0,0,1,.081-.718,2.344,2.344,0,0,0,.081-.551c0-.275.059-.4.227-.47.13-.054-.13-.2-.345-.2-.167,0-.205.022-.205.1a.188.188,0,0,0,.054.14,1.881,1.881,0,0,1-.027.977,3.256,3.256,0,0,0-.081.734,1.4,1.4,0,0,1-.394,1.123c-.173.135-.205.135-.383-.005-.135-.108-.14-.13-.14-.68a9.543,9.543,0,0,1,.076-1.117c.043-.3.092-.686.113-.858.032-.275.054-.318.178-.367.237-.092.038-.194-.443-.227l-.421-.032.043.173Z" transform="translate(-966.754 -270.728)" fill="#262e67" fill-rule="evenodd"/>
    <path id="Path_8" data-name="Path 8" d="M859.752,285.989a5.375,5.375,0,0,1-.637.086,1.485,1.485,0,0,0-.47.081c-.016.022.032.1.1.173a.648.648,0,0,1,.162.421c.016.162.054.545.086.858s.086.831.124,1.155c.054.534.054.588-.032.653-.1.07-.119.167-.043.216a.742.742,0,0,0,.3-.027c.135-.032.5-.081.8-.113a2.338,2.338,0,0,0,.621-.113c.049-.043.065-.189.054-.524-.016-.486-.086-.594-.173-.248a1.021,1.021,0,0,1-.248.41c-.178.189-.232.216-.41.2l-.205-.016-.075-.588c-.076-.615-.049-.766.124-.626a.233.233,0,0,1,.081.13.334.334,0,0,0,.124.173l.119.108-.016-.518c-.016-.7-.059-.982-.135-.955-.032.011-.081.124-.1.254-.043.264-.157.41-.275.362-.054-.022-.086-.162-.108-.507-.016-.259-.038-.524-.049-.583-.016-.1.016-.108.286-.124.34-.016.464.07.529.372.043.221.146.259.189.07a1.572,1.572,0,0,0-.086-.74C860.335,285.924,860.086,285.913,859.752,285.989Z" transform="translate(-817.701 -272.61)" fill="#262e67" fill-rule="evenodd"/>
    <path id="Path_9" data-name="Path 9" d="M1053.488,288.938a.455.455,0,0,0,.076.248.457.457,0,0,1,.076.254,3.42,3.42,0,0,0-.076.518,2.348,2.348,0,0,1-.135.637,1.421,1.421,0,0,0-.081.545,1.054,1.054,0,0,1-.049.416.747.747,0,0,0-.108.286,1.07,1.07,0,0,1-.178.378l-.113.119.146.059c.221.081.464.065.5-.032a.111.111,0,0,0-.054-.14c-.113-.059-.13-.578-.022-.68a1.553,1.553,0,0,0,.1-.513,3.059,3.059,0,0,1,.092-.6,2.6,2.6,0,0,0,.092-.318c.043-.216.1-.13.237.4.07.254.157.556.194.675s.124.4.189.621c.286.982.432,1.128.5.513a4.735,4.735,0,0,1,.092-.567,1.988,1.988,0,0,0,.054-.475,1.122,1.122,0,0,1,.108-.5,1.181,1.181,0,0,0,.108-.561.8.8,0,0,1,.162-.588,1.113,1.113,0,0,0,.162-.3c0-.027-.1-.065-.221-.081-.356-.049-.464.043-.286.238.07.076.076.13.027.3a2.575,2.575,0,0,0-.059.561c0,.281-.022.372-.1.448-.124.113-.221.076-.221-.086a2.292,2.292,0,0,0-.113-.47c-.059-.194-.146-.491-.194-.653-.135-.486-.146-.5-.421-.6C1053.677,288.879,1053.532,288.863,1053.488,288.938Z" transform="translate(-1001.473 -275.403)" fill="#262e67" fill-rule="evenodd"/>
    <path id="Path_10" data-name="Path 10" d="M810,292.029c-.3.1-.367.227-.178.308.092.038.13.108.14.243a3.988,3.988,0,0,0,.1.551,1.235,1.235,0,0,1,.054.41c-.016.032-.108.065-.205.081a2.522,2.522,0,0,0-.3.065c-.1.032-.124.016-.151-.113-.016-.086-.07-.308-.113-.491-.1-.459-.1-.7.022-.767.07-.043.076-.065.027-.119s-.13-.049-.378.022a3.52,3.52,0,0,1-.443.1c-.167.022-.216.151-.065.189a.212.212,0,0,1,.14.146c.178.864.259,1.328.378,2.105.043.291.1.551.108.578a.433.433,0,0,1-.054.243.571.571,0,0,0-.059.227.457.457,0,0,0,.2-.038,1.418,1.418,0,0,1,.378-.059,1.154,1.154,0,0,0,.286-.032c.092-.038.119-.184.032-.184-.1,0-.211-.324-.3-.864-.043-.308-.081-.567-.081-.572a.64.64,0,0,1,.178-.049.775.775,0,0,0,.232-.086c.178-.146.291.1.4.9.043.313.038.389-.032.47-.049.049-.07.119-.049.146.086.146.9-.038.934-.211.005-.043-.043-.108-.108-.135-.1-.043-.13-.108-.157-.351-.016-.162-.07-.518-.124-.783s-.13-.669-.167-.891c-.108-.545-.114-.837-.032-.939C810.782,291.921,810.458,291.872,810,292.029Z" transform="translate(-770.189 -278.283)" fill="#262e67" fill-rule="evenodd"/>
    <path id="Path_11" data-name="Path 11" d="M1102.591,301.916a2.134,2.134,0,0,0-.734.955,1.772,1.772,0,0,0-.157.993c0,.648.005.686.157.934a.947.947,0,0,0,1.339.443c.232-.157.351-.335.27-.416-.032-.032-.141.011-.3.113-.286.2-.421.211-.632.049-.227-.162-.3-.545-.227-1.193.1-.928.426-1.582.831-1.684.286-.07.54.238.659.794.021.086.07.151.108.151.054,0,.086-.113.113-.367a3.851,3.851,0,0,1,.065-.475c.021-.1.005-.113-.108-.092s-.21-.027-.394-.167A.774.774,0,0,0,1102.591,301.916Z" transform="translate(-1047.639 -287.571)" fill="#262e67" fill-rule="evenodd"/>
    <path id="Path_12" data-name="Path 12" d="M765.734,302.994a5.349,5.349,0,0,1-.756.254,2.324,2.324,0,0,0-.416.14c-.281.108-.286.113-.281.329.011.513.162.664.275.275.065-.237.308-.48.394-.394a1.341,1.341,0,0,1,.113.335c.043.167.108.432.151.583.459,1.668.491,1.819.416,1.943-.13.205.054.265.41.13a2.55,2.55,0,0,1,.356-.108c.178-.043.189-.151.022-.243-.1-.054-.157-.184-.275-.615-.232-.885-.491-1.8-.572-2.057-.059-.178-.005-.248.189-.248a.682.682,0,0,1,.421.34c.016.049.059.092.092.092.1,0,.124-.162.032-.3a.512.512,0,0,1-.086-.237c0-.205-.059-.275-.238-.27A.593.593,0,0,0,765.734,302.994Z" transform="translate(-728.433 -288.697)" fill="#262e67" fill-rule="evenodd"/>
    <path id="Path_13" data-name="Path 13" d="M1140.541,309.959c-.016.027.005.081.054.119.1.081.075.48-.054.912-.038.135-.124.486-.194.783-.232,1.02-.318,1.3-.426,1.366-.151.1-.081.216.178.281l.427.119c.151.043.216.049.265,0s.038-.07-.027-.1c-.108-.038-.124-.426-.032-.723.059-.2.151-.588.286-1.215a4.462,4.462,0,0,1,.135-.529.964.964,0,0,0,.059-.281.474.474,0,0,1,.14-.265c.173-.157.146-.286-.07-.329-.081-.016-.265-.065-.4-.108C1140.584,309.894,1140.578,309.894,1140.541,309.959Z" transform="translate(-1083.721 -295.29)" fill="#262e67" fill-rule="evenodd"/>
    <path id="Path_14" data-name="Path 14" d="M719.258,318.906a2.467,2.467,0,0,0-.254.1.814.814,0,0,1-.259.076.519.519,0,0,0-.2.059,2.754,2.754,0,0,1-.351.124c-.27.065-.318.14-.14.221.108.049.248.383.367.891.016.076.065.254.108.4s.113.426.167.621.124.48.173.637c.07.238.07.308.011.421-.14.254.043.27.648.049a1.286,1.286,0,0,0,.265-.113c.011-.011-.054-.086-.146-.173a.73.73,0,0,1-.2-.313c-.022-.086-.086-.324-.146-.524-.086-.281-.1-.383-.049-.432.086-.086.324.049.464.27a.488.488,0,0,0,.151.178c.054,0,.049-.2-.016-.313a1.575,1.575,0,0,1-.1-.335,2.5,2.5,0,0,0-.3-.826c-.032-.005-.059.108-.07.259-.022.286-.092.421-.216.394a2.319,2.319,0,0,1-.313-.993c-.032-.2-.021-.227.092-.254a.581.581,0,0,1,.713.189c.108.124.21.211.232.194a.68.68,0,0,0-.054-.281,1.629,1.629,0,0,1-.086-.345C719.744,318.9,719.517,318.814,719.258,318.906Z" transform="translate(-684.603 -303.762)" fill="#262e67" fill-rule="evenodd"/>
    <path id="Path_15" data-name="Path 15" d="M1163.283,319.909c-.022.027,0,.1.049.151.075.086.075.124-.054.5-.076.221-.162.486-.194.588a1.6,1.6,0,0,1-.086.243c-.038.054-.356.95-.448,1.247a.764.764,0,0,1-.183.292c-.157.146-.178.27-.049.27a1.2,1.2,0,0,1,.34.113c.135.065.324.146.41.183s.275.124.416.189a.859.859,0,0,0,.351.1,1.637,1.637,0,0,0,.443-.788c.005-.151-.13-.156-.216-.005a.658.658,0,0,1-.534.367c-.248,0-.518-.211-.459-.356a2.563,2.563,0,0,0,.081-.259c.027-.092.108-.335.189-.54s.162-.453.189-.54a7.978,7.978,0,0,1,.3-.82.812.812,0,0,0,.081-.259c0-.049.07-.113.162-.14s.162-.092.162-.13a2.8,2.8,0,0,0-.858-.459A.117.117,0,0,0,1163.283,319.909Z" transform="translate(-1104.904 -304.69)" fill="#262e67" fill-rule="evenodd"/>
    <path id="Path_16" data-name="Path 16" d="M675.756,339.963a1.454,1.454,0,0,0-.556,1.161,2.721,2.721,0,0,0,1.215,2.159c.691.286,1.377-.324,1.377-1.22a3.5,3.5,0,0,0-.248-1.063,2.2,2.2,0,0,1-.081-.216,2.28,2.28,0,0,0-.621-.729.713.713,0,0,0-.588-.205A.846.846,0,0,0,675.756,339.963Zm.658.345a2.535,2.535,0,0,1,.372.583c.572,1.2.626,2.143.119,2.143-.378,0-.993-1.155-1.123-2.111-.049-.351-.043-.437.038-.6C675.95,340.05,676.15,340.044,676.415,340.309Z" transform="translate(-644.161 -323.61)" fill="#262e67" fill-rule="evenodd"/>
    <path id="Path_17" data-name="Path 17" d="M1218.779,347.353a1.665,1.665,0,0,0-1.123.972c-.556,1.02-.448,2.084.232,2.429s1.447-.232,1.862-1.376a1.724,1.724,0,0,0-.2-1.738,2.434,2.434,0,0,0-.583-.313A.688.688,0,0,0,1218.779,347.353Zm.529.426a1.293,1.293,0,0,1,.038.8,5.063,5.063,0,0,1-.831,1.738c-.227.216-.41.254-.577.119-.119-.1-.13-.14-.119-.486a4.006,4.006,0,0,1,.918-2.116c.156-.135.227-.162.361-.135A.585.585,0,0,1,1219.308,347.779Z" transform="translate(-1156.999 -330.681)" fill="#262e67" fill-rule="evenodd"/>
    <path id="Path_18" data-name="Path 18" d="M615.329,361.465a.384.384,0,0,1-.183.081.239.239,0,0,0-.151.065c-.049.049-.043.086.038.173a1.565,1.565,0,0,1,.275,1.058,1.311,1.311,0,0,1-.043.486,4.433,4.433,0,0,1-.486-.459c-.41-.426-.475-.524-.443-.723.011-.092-.254-.038-.383.081a.266.266,0,0,1-.135.076.62.62,0,0,0-.211.162c-.135.14-.146.173-.081.216a.363.363,0,0,0,.156.054,8.925,8.925,0,0,1,1.517,1.538c.356.767.345.723.238.842-.076.081-.081.119-.032.167s.092.054.178,0c.059-.038.254-.14.432-.232.329-.167.41-.3.2-.329-.1-.011-.189-.135-.389-.529l-.259-.513-.043-.81c-.027-.448-.065-.864-.081-.934a.494.494,0,0,1,.027-.286c.086-.2.016-.3-.14-.184Z" transform="translate(-585.78 -344.011)" fill="#262e67" fill-rule="evenodd"/>
    <path id="Path_19" data-name="Path 19" d="M1253.722,365.077a1.5,1.5,0,0,1-.2.664c-.113.237-.237.5-.275.594-.551,1.242-.631,1.387-.8,1.474s-.178.151-.021.2a3.247,3.247,0,0,1,.378.194c.362.216.442.205.4-.027-.027-.151.011-.3.194-.729a1.66,1.66,0,0,1,.292-.545c.1,0,.178.124.216.367.043.259.162.3.216.076a4.854,4.854,0,0,1,.189-.475c.238-.5.205-.642-.076-.345-.156.167-.324.211-.394.1a3.9,3.9,0,0,1,.5-1.166c.038-.016.167.049.286.146.205.162.216.184.216.48a.943.943,0,0,0,.038.345c.054.059.178-.076.178-.194a.323.323,0,0,1,.075-.194.663.663,0,0,0,.113-.232c.043-.162-.054-.237-.826-.648a3.955,3.955,0,0,1-.464-.264.262.262,0,0,0-.146-.049C1253.733,364.85,1253.717,364.893,1253.722,365.077Z" transform="translate(-1190.117 -347.261)" fill="#262e67" fill-rule="evenodd"/>
    <path id="Path_20" data-name="Path 20" d="M583.231,389.005a.235.235,0,0,1-.167.108,1.471,1.471,0,0,0-.621.259,1.358,1.358,0,0,0-.2.292,2.332,2.332,0,0,0,1.285,2.856,1,1,0,0,0,1.258-.891c0-.286-.043-.41-.135-.41-.049,0-.086.1-.108.254-.049.378-.113.491-.318.594-.178.081-.205.081-.4-.011a2.425,2.425,0,0,1-.734-.734,3.06,3.06,0,0,1-.513-1.328c0-.545.578-.74,1-.335.135.135.178.146.227.086s.022-.135-.124-.351a2.95,2.95,0,0,1-.216-.389C583.42,388.865,583.318,388.865,583.231,389.005Z" transform="translate(-556.122 -370.012)" fill="#262e67" fill-rule="evenodd"/>
    <path id="Path_21" data-name="Path 21" d="M1298.621,392.9a.116.116,0,0,0,.054.086c.092.059.059.27-.081.518-.07.13-.167.308-.216.4s-.13.232-.189.324-.14.238-.184.329a.6.6,0,0,1-.135.205.176.176,0,0,0-.059.135.259.259,0,0,1-.081.167.261.261,0,0,0-.081.173.148.148,0,0,1-.081.13.224.224,0,0,0-.108.124.328.328,0,0,1-.162.157.194.194,0,0,0-.011.367.611.611,0,0,1,.216.119c.108.092.1.1.113-.254a.707.707,0,0,1,.13-.432.63.63,0,0,0,.119-.238.235.235,0,0,1,.081-.146.228.228,0,0,0,.081-.135.5.5,0,0,1,.108-.205.5.5,0,0,0,.108-.216.236.236,0,0,1,.081-.146.259.259,0,0,0,.081-.167.1.1,0,0,1,.108-.1c.13,0,.135.049.022.459-.086.308-.151.572-.324,1.3-.135.567-.146.621-.1.621.092,0,.189-.086,1.047-.939a9.486,9.486,0,0,1,.864-.8,2.749,2.749,0,0,1-.27.556c-.027.043-.2.345-.383.675-.4.713-.459.783-.626.783-.194,0-.151.13.108.3.124.086.237.173.254.189a.89.89,0,0,0,.41.2c.016-.022,0-.086-.033-.151-.081-.151-.032-.265.432-1.08.194-.34.372-.659.394-.7a2.849,2.849,0,0,1,.68-.977c.124-.043,0-.189-.275-.329-.183-.1-.308-.13-.362-.1a8.957,8.957,0,0,0-.7.675,3.331,3.331,0,0,1-.659.583.7.7,0,0,1,.038-.367c.048-.178.108-.41.13-.513s.081-.335.13-.513c.135-.507.119-.632-.114-.815a1.66,1.66,0,0,0-.529-.292C1298.632,392.85,1298.621,392.872,1298.621,392.9Zm.065,1.042c-.048.049-.065.038-.065-.065s.016-.113.065-.065S1298.734,393.892,1298.685,393.94Z" transform="translate(-1232.549 -373.749)" fill="#262e67" fill-rule="evenodd"/>
    <path id="Path_22" data-name="Path 22" d="M1478.646,1564.561a2.043,2.043,0,0,0-.21,1.01c-.032.664.016.821.194.6a2.468,2.468,0,0,0,.427-.815.46.46,0,0,0-.038-.459C1478.873,1564.609,1478.717,1564.469,1478.646,1564.561Z" transform="translate(-1404.03 -1482.184)" fill="#262e67" fill-rule="evenodd"/>
    <path id="Path_23" data-name="Path 23" d="M1489.1,1602.9a3.051,3.051,0,0,0-.513.313c-.156.135-.178.173-.119.243a1.314,1.314,0,0,0,.669.2,2.548,2.548,0,0,0,.983-.486l.2-.178-.119-.124C1490.016,1602.669,1489.536,1602.685,1489.1,1602.9Z" transform="translate(-1413.499 -1518.317)" fill="#262e67" fill-rule="evenodd"/>
    <path id="Path_24" data-name="Path 24" d="M433.83,1580.06l-.13.108.13.248c.2.373.507.562.7.427a.617.617,0,0,0,.022-.7A.56.56,0,0,0,433.83,1580.06Z" transform="translate(-415.698 -1496.782)" fill="#262e67" fill-rule="evenodd"/>
    <path id="Path_25" data-name="Path 25" d="M1159.776,1750.254a3.171,3.171,0,0,0-1.16.793,2.475,2.475,0,0,0-.416.459c0,.081.146.076.432-.016.356-.114.9-.275,1.3-.383.912-.243,1.031-.308.912-.5A1.211,1.211,0,0,0,1159.776,1750.254Z" transform="translate(-1101.089 -1657.865)" fill="#262e67" fill-rule="evenodd"/>
    <path id="Path_26" data-name="Path 26" d="M737.943,1761.078c-.135.07-.243.162-.243.2,0,.1.281.221.513.227.173.005.189-.005.205-.167.021-.194-.065-.394-.167-.389A1.286,1.286,0,0,0,737.943,1761.078Z" transform="translate(-703.288 -1667.997)" fill="#262e67" fill-rule="evenodd"/>
    <path id="Path_27" data-name="Path 27" d="M536.647,415.064c-.227.162-.243.3-.043.324s.394.259.54.615a.363.363,0,0,0,.14.173.146.146,0,0,1,.076.135.164.164,0,0,0,.081.135.13.13,0,0,1,.081.113c0,.092-.189.113-.248.022a.6.6,0,0,0-.205-.135c-.092-.043-.265-.135-.383-.205a6.424,6.424,0,0,0-.891-.464,2.082,2.082,0,0,0-.594.443c0,.022.081.076.178.113a1.217,1.217,0,0,1,.47.491,1.785,1.785,0,0,0,.189.3,1.5,1.5,0,0,1,.189.318.245.245,0,0,0,.07.124,1.865,1.865,0,0,1,.308.47.246.246,0,0,0,.07.124,1.048,1.048,0,0,1,.281.723c-.043.243.049.243.34-.011.265-.227.292-.345.081-.345a.355.355,0,0,1-.362-.254.268.268,0,0,0-.113-.146.158.158,0,0,1-.081-.14.159.159,0,0,0-.081-.14.137.137,0,0,1-.081-.1.466.466,0,0,0-.108-.189.478.478,0,0,1-.108-.173,1.914,1.914,0,0,0-.313-.464c-.076-.081-.059-.205.027-.189.038.005.74.4,1.1.61.043.027.205.113.351.189s.367.194.486.27c.318.194.351.211.416.146s.032-.157-.281-.632c-.119-.178-.232-.362-.254-.4s-.119-.194-.216-.335a1.186,1.186,0,0,1-.178-.329.311.311,0,0,0-.108-.162.3.3,0,0,1-.108-.173c0-.043-.022-.081-.054-.081s-.065-.059-.086-.135a.3.3,0,0,0-.113-.178.413.413,0,0,1-.1-.286c-.005-.13-.016-.254-.022-.281C536.976,414.88,536.846,414.918,536.647,415.064Z" transform="translate(-511.719 -394.624)" fill="#262e67" fill-rule="evenodd"/>
    <path id="Path_28" data-name="Path 28" d="M1346.925,429.989a.144.144,0,0,0,.027.14c.075.086,0,.221-.756,1.371-.222.34-.421.664-.443.713a1.411,1.411,0,0,1-.259.3c-.232.232-.275.372-.119.426a1.94,1.94,0,0,1,.313.216c.243.194.291.184.291-.059a.779.779,0,0,1,.13-.351c.07-.108.27-.416.437-.68.95-1.479.966-1.5,1.117-1.452.054.016.1.016.1,0a.668.668,0,0,0-.162-.3,1.422,1.422,0,0,1-.275-.189C1347.076,429.93,1346.984,429.9,1346.925,429.989Z" transform="translate(-1278.073 -408.837)" fill="#262e67" fill-rule="evenodd"/>
    <path id="Path_29" data-name="Path 29" d="M501.931,446.266c-.292.227-.6.48-.68.567l-.151.151.14.054a1.687,1.687,0,0,0,.205.059,9.922,9.922,0,0,1,.815,1.134c.648.988.745,1.155.723,1.312-.016.173-.011.178.1.135a.881.881,0,0,0,.232-.146c.059-.054.324-.27.594-.475.432-.335.48-.389.48-.551a.547.547,0,0,0-.1-.318.5.5,0,0,1-.108-.237.149.149,0,0,0-.108-.13c-.059-.016-.108-.059-.108-.086s-.027-.049-.065-.049-.049.016,0,.065a.967.967,0,0,1,.065.443c-.005.324-.022.4-.13.524-.167.194-.318.237-.421.119a4.821,4.821,0,0,1-.583-.912c0-.119.194-.086.367.059.324.27.378.119.092-.259a1.874,1.874,0,0,1-.189-.275,2.048,2.048,0,0,0-.34-.475c-.119-.076-.13-.043-.081.232s.032.426-.054.426a4.887,4.887,0,0,1-.659-.993c0-.1.308-.3.464-.3a.722.722,0,0,1,.346.162,1.473,1.473,0,0,0,.237.162c.151,0-.313-.8-.464-.81A2.879,2.879,0,0,0,501.931,446.266Z" transform="translate(-479.459 -423.888)" fill="#262e67" fill-rule="evenodd"/>
    <path id="Path_30" data-name="Path 30" d="M1364.314,448.217c0,.184-.032.243-.475.82-.049.065-.129.162-.173.216a5.346,5.346,0,0,0-.486.626.516.516,0,0,1-.092.135c-.508.54-.524.551-.648.518-.14-.032-.146-.022-.065.146s.356.383.427.34a.363.363,0,0,0,.054-.227c0-.151.07-.281.378-.669a3.073,3.073,0,0,0,.378-.534.053.053,0,0,1,.049-.054.719.719,0,0,0,.21-.243c.13-.2.173-.227.221-.167s.038.194-.043.578c-.108.529-.178.88-.3,1.56-.038.221-.092.459-.108.524-.027.092-.016.124.043.124.124,0,.254-.14.767-.81.259-.34.513-.664.562-.713a3.2,3.2,0,0,0,.345-.453c.167-.248.362-.378.5-.324s.049-.238-.124-.383c-.21-.173-.265-.151-.292.113a.713.713,0,0,1-.092.308,7.192,7.192,0,0,0-.513.664c-.27.383-.351.335-.232-.14.043-.189.1-.464.119-.61a4.449,4.449,0,0,1,.113-.534c.119-.426.1-.524-.157-.777C1364.39,447.969,1364.314,447.964,1364.314,448.217Z" transform="translate(-1294.193 -425.953)" fill="#262e67" fill-rule="evenodd"/>
    <path id="Path_31" data-name="Path 31" d="M1398.832,483.036c0,.124-.173.34-1.225,1.506-.459.507-.653.691-.761.7-.081.011-.146.043-.146.076,0,.1.61.734.675.7a.321.321,0,0,0,.054-.205c0-.178.027-.211,1.6-1.943.162-.173.275-.254.373-.254.167,0,.173-.054.016-.227-.07-.076-.189-.211-.275-.3C1398.967,482.879,1398.832,482.858,1398.832,483.036Z" transform="translate(-1326.715 -458.953)" fill="#262e67" fill-rule="evenodd"/>
    <path id="Path_32" data-name="Path 32" d="M466.145,486.01a4.383,4.383,0,0,0-.945.966c0,.038.059.07.13.07.13,0,.308.178,1.484,1.5.421.475.491.583.491.745v.189l.162-.086c.092-.049.162-.1.162-.124a1.739,1.739,0,0,1,.259-.308,1.284,1.284,0,0,0,.5-1.026,2.267,2.267,0,0,0-.928-1.636A1.217,1.217,0,0,0,466.145,486.01Zm.918.831a2.39,2.39,0,0,1,.891,1.387c0,.594-.135.529-1.042-.5-.426-.48-.815-.907-.864-.95-.135-.108-.113-.265.054-.346C466.323,486.318,466.636,486.447,467.062,486.841Z" transform="translate(-445.497 -461.792)" fill="#262e67" fill-rule="evenodd"/>
    <path id="Path_33" data-name="Path 33" d="M1415.2,504.97a1.525,1.525,0,0,0-.583.561c-.135.211-.14.237-.13,1.036l.011.82-.146.135c-.183.173-.356.178-.507.027-.1-.1-.113-.156-.086-.5a1.007,1.007,0,0,1,.119-.464c.1-.119.108-.275.005-.275a.285.285,0,0,0-.156.119,3.442,3.442,0,0,1-.3.367,1.213,1.213,0,0,0-.221.3c0,.027.075.108.162.173a.39.39,0,0,1,.162.232.587.587,0,0,0,.205.291.524.524,0,0,0,.4.189,1.319,1.319,0,0,0,1.031-.794,2.291,2.291,0,0,0,.027-1.15,1.088,1.088,0,0,1-.022-.41c.038-.211.254-.453.405-.453s.334.308.3.513c-.065.383-.1.513-.173.572-.092.076-.1.157-.011.157a1.674,1.674,0,0,0,.583-.68.45.45,0,0,0-.1-.243,1.028,1.028,0,0,1-.135-.248A.628.628,0,0,0,1415.2,504.97Z" transform="translate(-1342.324 -479.764)" fill="#262e67" fill-rule="evenodd"/>
    <path id="Path_34" data-name="Path 34" d="M447.63,512.469c-.119.135-.259.286-.308.335-.1.086-.13.216-.054.227a1.413,1.413,0,0,0,.173.022,11.489,11.489,0,0,1,2,2.067c0,.221.151.205.367-.049.108-.13.243-.281.3-.329.151-.157.113-.248-.1-.243-.167.005-.227-.038-.5-.313-.162-.178-.567-.594-.891-.928-.486-.491-.6-.642-.626-.8-.016-.113-.059-.211-.086-.216S447.749,512.334,447.63,512.469Z" transform="translate(-428.494 -486.691)" fill="#262e67" fill-rule="evenodd"/>
    <path id="Path_35" data-name="Path 35" d="M1443.965,529.284a1.243,1.243,0,0,0-.254.3c0,.065.129.059.194-.005.146-.146.615-.043.615.135a20.08,20.08,0,0,1-1.776,1.727c-.194.156-.275.194-.394.167-.081-.016-.151-.016-.151,0a1.1,1.1,0,0,0,.254.41,1.321,1.321,0,0,1,.2.27c.086.167.216.157.238-.016.016-.14.173-.3,1.684-1.711a1.461,1.461,0,0,1,.362-.281c.184-.005.216.556.038.707-.1.086-.1.156.021.156a1.014,1.014,0,0,0,.324-.232c.205-.205.227-.248.178-.362a10.349,10.349,0,0,0-1.2-1.5A.831.831,0,0,0,1443.965,529.284Z" transform="translate(-1369.758 -502.594)" fill="#262e67" fill-rule="evenodd"/>
    <path id="Path_36" data-name="Path 36" d="M428.248,533.969a1.112,1.112,0,0,1-.275.216.846.846,0,0,0-.281.313c-.108.216-.113.232-.022.5a1.512,1.512,0,0,0,.626.777,1.37,1.37,0,0,0,1.069.049.628.628,0,0,1,.664.092c.119.086.146.146.146.329,0,.292-.038.345-.275.389-.211.038-.642-.054-.642-.135s-.2-.07-.237-.005a3.253,3.253,0,0,0,.713.761c.022,0,.081-.076.13-.162a.512.512,0,0,1,.221-.21.9.9,0,0,0,.416-.491c.059-.146.054-.211-.032-.47a1.207,1.207,0,0,0-1.479-.88,2.373,2.373,0,0,1-.507.065c-.27.011-.329-.005-.416-.113a.555.555,0,0,1-.1-.313c0-.157.027-.194.178-.259a.864.864,0,0,1,.75.124c.086.07.1.07.13-.005.022-.054-.07-.184-.275-.383a1.84,1.84,0,0,0-.346-.3A.419.419,0,0,0,428.248,533.969Z" transform="translate(-409.933 -507.138)" fill="#262e67" fill-rule="evenodd"/>
    <path id="Path_37" data-name="Path 37" d="M370.8,564.212c-.14.205-.362.518-.5.707-.286.416-.3.5-.059.5.14,0,.275.092.767.524.329.286.783.675,1.015.864.448.378.507.513.308.691-.1.092-.14.1-.448.027-.184-.038-.47-.086-.632-.1-.378-.043-.432-.081-.432-.3a1.077,1.077,0,0,0-.8-.9.5.5,0,0,0-.437.027,1.025,1.025,0,0,0-.335.27,3.2,3.2,0,0,0-.372.556,1.31,1.31,0,0,1-.167.237c-.2.254-.178.4.054.346.135-.027.264.054,1.144.729.545.421,1.026.8,1.063.853a.33.33,0,0,1,.049.216c-.032.162.054.205.178.092a2.828,2.828,0,0,0,.486-.8c0-.065-.038-.076-.162-.054s-.205,0-.389-.151c-.13-.1-.324-.238-.432-.308s-.205-.146-.205-.178c0-.07.448-.032,1.047.092l.48.1.13-.162a2.91,2.91,0,0,0,.237-.356,1.41,1.41,0,0,1,.216-.324c.113-.13.572-.756.669-.918.027-.054.124-.189.205-.308.184-.254.173-.286-.254-.7-.3-.292-.432-.335-.313-.1a2.339,2.339,0,0,1,.227.637c0,.183-.238.534-.362.534a4.505,4.505,0,0,1-.88-.7.2.2,0,0,1,.059-.1c.07-.07.4.011.545.13.13.113.178-.011.059-.173-.054-.07-.113-.135-.135-.135a.379.379,0,0,1-.13-.092,5.007,5.007,0,0,0-.869-.664c-.113,0-.081.092.092.281s.232.5.086.464a2.967,2.967,0,0,1-.842-.761.517.517,0,0,1,.173-.265c.178-.162.254-.173.621-.065.092.022.135.005.162-.065s.011-.1-.032-.119a.557.557,0,0,1-.162-.113,2.287,2.287,0,0,0-.453-.329,2.638,2.638,0,0,0-.275.362Zm-.934,2.618c.378.254.524.432.524.637,0,.286-.173.416-.335.254a.876.876,0,0,0-.156-.124,3.069,3.069,0,0,1-.642-.572c0-.081.259-.313.356-.313A.635.635,0,0,1,369.868,566.83Z" transform="translate(-354.09 -535.519)" fill="#262e67" fill-rule="evenodd"/>
    <path id="Path_38" data-name="Path 38" d="M1465.813,565.121c.032.151-.022.211-.875.945-1.139.982-1.118.972-1.328.972-.237,0-.232.065.049.437.124.173.264.362.308.426.318.464.518.7.588.7.167-.005.81-.507.739-.583-.021-.016-.064,0-.1.032a.8.8,0,0,1-.383.065c-.3,0-.329-.011-.5-.2a.781.781,0,0,1-.183-.265,4.487,4.487,0,0,1,.918-.831c.113,0,.113.151,0,.372-.065.119-.14.221-.167.221s-.048.038-.048.081c0,.151.135.081.61-.324.621-.513.81-.756.47-.588a1.408,1.408,0,0,1-.351.113c-.259.043-.313-.1-.1-.27.086-.065.286-.237.448-.378l.3-.259.124.151a.615.615,0,0,1,.081.729c-.135.232-.146.313-.043.313a1.5,1.5,0,0,0,.572-.545,1.193,1.193,0,0,0-.2-.362c-.113-.151-.292-.4-.394-.556C1466.013,565.034,1465.765,564.845,1465.813,565.121Z" transform="translate(-1389.852 -536.6)" fill="#262e67" fill-rule="evenodd"/>
    <circle id="Ellipse_5" data-name="Ellipse 5" cx="0.054" cy="0.054" r="0.054" transform="translate(0 29.357)" fill="#262e67"/>
    <path id="Path_39" data-name="Path 39" d="M1489.834,603.023c-.043.14-.211.3-.767.718-1.458,1.107-1.4,1.063-1.576,1.026-.205-.043-.21.005-.032.265a1.146,1.146,0,0,1,.135.227c0,.065.286.394.324.372a.354.354,0,0,0,.07-.178c.022-.108.146-.248.41-.459a2.268,2.268,0,0,1,.426-.308c.092,0,.113.146.043.248-.038.059-.2.346-.356.648-.318.6-.324.7-.076.988.162.194.292.216.292.049a4.2,4.2,0,0,1,.308-.734l.313-.615.227.032a1.558,1.558,0,0,0,.389,0,1.346,1.346,0,0,0,.815-.928,3.339,3.339,0,0,0-.507-1.063,3.05,3.05,0,0,1-.249-.421c0-.022-.032-.038-.07-.038S1489.861,602.931,1489.834,603.023Zm.416.783c.162.146.124.4-.092.626a1.1,1.1,0,0,1-.637.362.461.461,0,0,1-.362-.335c0-.054.022-.1.049-.1a3.151,3.151,0,0,0,.47-.324,4.88,4.88,0,0,1,.448-.324A.4.4,0,0,1,1490.25,603.805Z" transform="translate(-1412.453 -572.413)" fill="#262e67" fill-rule="evenodd"/>
    <path id="Path_40" data-name="Path 40" d="M348.474,647.1a2.054,2.054,0,0,0-.3.421c-.043.086-.135.265-.211.383-.124.194-.13.232-.059.292a.105.105,0,0,0,.151.011c.1-.086.205-.032,1.317.718.891.6,1.031.718,1.069.9.043.2.162.2.238.005a3.673,3.673,0,0,1,.194-.383c.189-.329.178-.443-.022-.4-.13.027-.243-.022-.621-.275a2.926,2.926,0,0,1-.464-.34.386.386,0,0,1,.086-.124.916.916,0,0,0,.113-.41.865.865,0,0,0-.4-.864.686.686,0,0,0-.551-.178C348.706,646.85,348.7,646.855,348.474,647.1Zm.767.48a.8.8,0,0,1,.367.524c0,.135-.151.146-.335.016-.292-.194-.772-.529-.8-.556s.022-.059.081-.108C348.7,647.352,348.976,647.4,349.241,647.584Z" transform="translate(-334.493 -614.038)" fill="#262e67" fill-rule="evenodd"/>
    <path id="Path_41" data-name="Path 41" d="M1514.667,648.119a1.523,1.523,0,0,0-.464.313,1.664,1.664,0,0,0-.41,1.225c0,.421-.146.686-.416.767-.427.119-.594-.34-.308-.853a1.272,1.272,0,0,1,.189-.275c.07-.049.06-.189-.011-.189a1.028,1.028,0,0,0-.3.189,1.033,1.033,0,0,1-.286.189c-.032,0-.1.059-.146.14-.086.129-.086.14.027.216a.3.3,0,0,1,.113.27.767.767,0,0,0,.826.691,1.5,1.5,0,0,0,.972-.75,3,3,0,0,0,.113-.7,1.378,1.378,0,0,1,.173-.745c.108-.162.162-.2.308-.2s.194.032.27.178c.092.173.092.194.005.421a1,1,0,0,1-.162.3.215.215,0,0,0-.076.151c0,.049-.027.086-.065.086s-.048.011-.032.027c.086.092.8-.389.8-.534a.223.223,0,0,0-.081-.14.261.261,0,0,1-.081-.173.757.757,0,0,0-.432-.6c-.254-.1-.232-.1-.529.005Z" transform="translate(-1436.222 -615.161)" fill="#262e67" fill-rule="evenodd"/>
  </g>
  <path id="Path_42" data-name="Path 42" d="M139.436,621.152c-.032-.243-.081-.729-.108-1.08-.07-.912-.27-2.37-.464-3.471-.049-.254-.1-.534-.108-.621s-.065-.335-.108-.54-.119-.561-.162-.783c-.157-.75-.4-1.76-.54-2.24-.043-.151-.1-.367-.13-.486s-.1-.389-.162-.594-.135-.47-.162-.578c-.065-.254-.572-1.771-.864-2.58-.124-.34-.243-.68-.27-.756s-.146-.378-.27-.675-.248-.61-.281-.691-.081-.14-.108-.135a1.711,1.711,0,0,0-.238.367c-.2.367-.583,1.047-.675,1.188-.027.043-.065.119-.086.162s-.151.281-.291.524-.362.637-.486.864c-.529.977-.583,1.042-.966,1.188-.194.07-.421.167-.513.205-.184.081-.567.238-1,.4-.162.059-.345.135-.4.162s-.264.113-.459.189-.4.162-.459.189-.238.1-.389.157c-.734.292-.864.34-1.015.41-.086.038-.27.113-.4.167s-.34.135-.459.184-.313.13-.432.173c-.772.308-.837.34-.837.453a.232.232,0,0,0,.055.164l3.642-1.2.028-.011a.532.532,0,0,1,.179-.057l.146-.048.134-.051a.133.133,0,0,1,.141-.053l.331-.125a.164.164,0,0,1,.056-.028.14.14,0,0,1,.037-.007l2.043-.77h0l-5.512,3.1a6.5,6.5,0,0,0-.816.459c-.032.027-.005.216.07.491a37.794,37.794,0,0,1,1.393,9.814,38.539,38.539,0,0,1-1.582,11.579c-.162.556-.68,2.111-.756,2.278a.917.917,0,0,0-.076.211c0,.049-.318.875-.453,1.182-.043.086-.14.318-.221.513-.389.923-.934,2.062-1.323,2.78-.13.237-.291.54-.362.675s-.151.281-.178.324-.205.345-.389.664c-.416.713-.426.729-.551.929a38.922,38.922,0,0,1-6.2,7.546,38.092,38.092,0,0,1-6.116,4.766c-.2.124-.216.135-.928.551-.318.184-.621.362-.664.389s-.189.108-.324.178-.437.232-.675.362c-.47.254-.556.3-1.323.658-.691.329-1.042.486-1.457.664-.194.081-.421.178-.513.221-.308.135-1.134.453-1.182.453a.915.915,0,0,0-.211.076c-.167.076-1.722.594-2.278.756a38.563,38.563,0,0,1-11.579,1.582,37.954,37.954,0,0,1-9.851-1.4c-1-.27-2.839-.875-3.347-1.09-.086-.038-.308-.124-.486-.194s-.394-.151-.486-.189-.318-.14-.513-.216c-.8-.34-2.672-1.252-3.374-1.646-.205-.119-.416-.232-.459-.254-.07-.032-.988-.561-1.269-.734-.054-.038-.221-.146-.362-.243a3.065,3.065,0,0,0-.281-.173c-.086,0-2.17-1.479-2.92-2.073a34.464,34.464,0,0,1-3.536-3.163,35.056,35.056,0,0,1-3.163-3.536c-.578-.729-1.873-2.548-2.1-2.953-.027-.054-.216-.356-.41-.675-.345-.556-.432-.707-.74-1.258-.07-.135-.211-.378-.3-.54-.184-.318-1.09-2.148-1.247-2.51-.049-.119-.135-.313-.189-.432-.14-.3-.534-1.258-.6-1.457a2.393,2.393,0,0,0-.1-.27c-.022-.059-.081-.205-.119-.324s-.14-.4-.221-.621c-.238-.68-.248-.713-.389-1.161-.324-1.047-.594-2.014-.664-2.359-.027-.124-.086-.378-.13-.556a40.044,40.044,0,0,1-.885-5.722,47.916,47.916,0,0,1,0-6.1c.1-1.166.221-2.165.34-2.834.043-.254.1-.637.13-.858a3.021,3.021,0,0,1,.081-.437,2.037,2.037,0,0,0,.076-.362,26.117,26.117,0,0,1,.653-2.764,1.607,1.607,0,0,0,.086-.513.243.243,0,0,0-.082-.107h0a2.051,2.051,0,0,0-.366-.228c-.232-.119-.653-.34-.934-.491l-.023-.012-5.1-2.722,6.37,2.238c.474.182.465.174.567.021s.092-.151-.032-.243a2.817,2.817,0,0,0-.507-.243c-.211-.081-.48-.189-.6-.237-.286-.124-.572-.238-1.02-.41-.205-.081-.416-.167-.459-.189s-.318-.135-.6-.243-.583-.232-.675-.27-.3-.124-.459-.189-.367-.156-.459-.194-.394-.156-.675-.27-.61-.243-.729-.292-.259-.108-.308-.124c-.1-.032-.232-.232-.513-.74-.3-.551-.459-.837-.556-1-.054-.092-.157-.275-.238-.421-.324-.588-.443-.793-.713-1.263a4.066,4.066,0,0,1-.291-.54c-.005-.07-.2-.286-.259-.286-.032,0-.07.054-.092.119a6.427,6.427,0,0,1-.27.718c-.038.086-.124.308-.189.486s-.146.372-.167.432c-.13.3-.7,1.992-.961,2.834-.07.221-.157.5-.194.621s-.113.373-.162.567-.124.459-.162.594-.124.459-.189.729-.146.621-.189.783c-.1.41-.248,1.058-.3,1.349-.022.135-.081.448-.13.7a46.73,46.73,0,0,0-.842,7.692c-.049,1.695.011,4.707.108,5.549.032.265.081.761.108,1.107.054.642.216,1.959.324,2.634.205,1.236.356,2.084.507,2.775.238,1.08.615,2.586.869,3.455.049.162.119.416.157.567s.1.329.13.4.151.437.275.81c.227.7.561,1.673.648,1.862.022.059.1.254.167.432.2.545.729,1.819,1.063,2.564.221.5,1.484,3.034,1.636,3.293.081.135.248.437.378.675s.3.529.372.648.167.265.2.324.1.183.162.281.173.286.259.432c.178.292,1.749,2.656,1.938,2.9a49.022,49.022,0,0,0,5.274,6.181,45.218,45.218,0,0,0,5.182,4.518c.518.394,1.009.767,1.09.826.248.194,2.256,1.528,2.677,1.787.545.329.723.432.847.5.059.032.205.124.324.2s.351.211.513.3.4.221.54.3c.972.545,2.17,1.144,3.574,1.792.734.34,1.814.783,3.012,1.247.632.243,2.586.891,3.4,1.128.135.038.378.108.54.157.826.243,2.148.567,3.077.761.221.043.578.119.783.162s.534.108.729.14c1.733.292,2.98.464,3.914.54.356.032.842.081,1.08.108s1.236.076,2.213.108a50.437,50.437,0,0,0,10.283-.68c.254-.049.534-.1.621-.108s.335-.065.54-.108.561-.113.783-.162c.918-.189,2.267-.524,3.077-.761.162-.049.4-.119.54-.157.6-.173,2.2-.685,2.359-.756a.912.912,0,0,1,.211-.075,3.158,3.158,0,0,0,.345-.113c.162-.065.383-.146.486-.183.426-.162,1.225-.475,1.376-.545.092-.038.5-.216.918-.394a47.929,47.929,0,0,0,4.345-2.127c.1-.059.3-.167.432-.243.729-.4,1.387-.8,2.213-1.333.189-.124,1.3-.858,1.663-1.107.4-.27.966-.68,1.522-1.107.313-.238.621-.47.686-.513.567-.394,2.483-2.051,3.654-3.158a50.908,50.908,0,0,0,6.672-7.757c.583-.853,1.009-1.49,1.053-1.565.032-.049.14-.232.248-.4.335-.534.939-1.538,1.112-1.851.086-.162.211-.383.27-.486.383-.68,1.134-2.148,1.49-2.915.076-.162.221-.48.324-.7s.286-.648.41-.945.259-.615.3-.7c.07-.151.378-.939.545-1.376l.178-.486c.135-.345.847-2.537.966-2.969.049-.162.119-.4.157-.54.2-.675.561-2.132.745-3.023.049-.221.119-.578.162-.783s.092-.453.108-.54.059-.367.108-.621c.194-1.09.389-2.537.47-3.482.027-.356.076-.842.1-1.079s.076-1.225.108-2.2a55.894,55.894,0,0,0-.108-5.744ZM85.78,666.8a.972.972,0,0,1,.313.221.762.762,0,0,1,.227.313,1.088,1.088,0,0,1-.545.437,1.25,1.25,0,0,1-.534-.432A1.333,1.333,0,0,1,85.78,666.8Zm-17.112-6.11c.34-.13.41-.119.534.059a.622.622,0,0,1,.113.211.674.674,0,0,0,.14.221c.13.156.151.162.443.135l.308-.032.2.356c.221.4.221.4-.221.551-.356.113-.4.092-.632-.335l-.173-.318-.329-.016a.584.584,0,0,1-.5-.27C68.344,660.92,68.366,660.812,68.668,660.693Zm-8.259-6.958.41.016c.3.011.426.038.453.1a3.165,3.165,0,0,1,.178.675c.011.1-.032.113-.367.14a1.045,1.045,0,0,1-.426-.011,2.136,2.136,0,0,1-.248-.767ZM43.762,615.279a4.13,4.13,0,0,1,.448-1.02,4.435,4.435,0,0,1,.464-.281,7.523,7.523,0,0,0,.858-.5c.318-.205.4-.21,1.042-.065.259.059.648.14.853.189s.507.108.664.14c.2.043.281.086.281.146a3.938,3.938,0,0,1-.982.658,6.369,6.369,0,0,0-1.112.74,7.867,7.867,0,0,0-.8,2.58c-.038.416-.049.443-.259.648a9.169,9.169,0,0,1-1.242,1,1.442,1.442,0,0,1-.335-.367c-.491-.658-.561-.788-.561-1.015C43.081,617.93,43.583,615.83,43.762,615.279Zm-1.468,9.976a31.808,31.808,0,0,1,.216-3.514c.086-.389.124-.443.68-.891.221-.184.637-.534.918-.788s.6-.529.7-.621c.934-.8,1.231-1.123,1.344-1.414a1.948,1.948,0,0,0,.113-.443,3.906,3.906,0,0,1,.14-.632c.076-.27.194-.718.264-1,.108-.4.167-.534.281-.631a1.494,1.494,0,0,1,.184-.124,12.425,12.425,0,0,0,1.15-.7.173.173,0,0,1,.238-.011,2.421,2.421,0,0,1,.345.928,3.812,3.812,0,0,1-.281,1.916,5.662,5.662,0,0,0-.275.81,2.343,2.343,0,0,1-.853,1.436c-.313.313-.993.918-1.5,1.339a8.844,8.844,0,0,0-1.042.961,8.406,8.406,0,0,0-.281,2.85c.059.2.054.221-.14.464-.826,1.031-1.047,1.3-1.09,1.279a7.623,7.623,0,0,1-.561-.518C42.445,625.563,42.32,625.4,42.293,625.255Zm.777,7.541c-.378-.27-.459-.475-.529-1.349-.027-.345-.076-.794-.108-1s-.054-.745-.054-1.193c0-.928-.049-.8.594-1.533.2-.221.513-.6.707-.837s.6-.74.9-1.117c.518-.637.561-.707.632-1.053a15.488,15.488,0,0,0,.135-1.555l.054-1.187.178-.162a13.532,13.532,0,0,1,1.355-1.107.272.272,0,0,1,.151.092,3.464,3.464,0,0,1,.529,1.031,2.424,2.424,0,0,1,.011.864c-.038.318-.076.891-.092,1.279a2.761,2.761,0,0,1-.4,1.592c-.108.162-.686.891-1.285,1.614-.907,1.09-1.1,1.349-1.123,1.533a14.227,14.227,0,0,0,.119,2.548c.173.594.184.545-.291,1.3-.038.054-.157.254-.265.443a1.319,1.319,0,0,1-.264.367A3.057,3.057,0,0,1,43.071,632.8Zm1.981,6.855c-.426-.183-.545-.259-.68-.448a.82.82,0,0,1-.157-.313.888.888,0,0,0-.076-.275c-.065-.162-.157-.443-.383-1.258-.043-.151-.124-.427-.178-.621a4.336,4.336,0,0,1-.227-1.031,2.484,2.484,0,0,1,.491-1.047c.076-.119.194-.324.265-.459s.162-.281.194-.324.13-.205.211-.351.194-.367.264-.486c.178-.318.632-1.161.729-1.349.1-.205.1-.313-.011-1.511-.054-.534-.108-1.134-.13-1.333l-.032-.356.6-.734c.335-.4.615-.734.632-.734a2.3,2.3,0,0,1,.3.254,2.678,2.678,0,0,1,.729,1.279,17.175,17.175,0,0,1,.07,3.077,21.918,21.918,0,0,1-1.441,2.613c-.065.113-.146.248-.173.308s-.113.205-.189.324c-.216.356-.189.691.162,1.943a6.012,6.012,0,0,0,.389,1.047c.13.281.135.3.049.54a6.839,6.839,0,0,1-.3.821,1.91,1.91,0,0,0-.108.308,1.075,1.075,0,0,1-.157.335l-.092.113-.324-.14C45.305,639.759,45.111,639.678,45.052,639.651Zm4.108,4.982c-.043.184-.13.572-.194.858a2.212,2.212,0,0,1-.151.529c-.086,0-.82-.178-1.15-.275-.4-.124-.448-.173-.8-.831-.124-.238-.291-.54-.367-.675-.74-1.317-1.053-2.154-.885-2.348a3.63,3.63,0,0,0,.2-.459,4.642,4.642,0,0,1,.194-.459,1.1,1.1,0,0,0,.092-.243c.065-.205.157-.475.47-1.323.529-1.441.529-1.447.351-2.057-.065-.205-.146-.5-.189-.642-.151-.524-.308-1.026-.383-1.231a.6.6,0,0,1-.005-.572c.038-.049.259-.41.491-.8a3.661,3.661,0,0,1,.486-.712,2.4,2.4,0,0,1,.464.34,1.9,1.9,0,0,1,.723.928c.032.167.221.848.383,1.376a4.612,4.612,0,0,1,.281,1.269,1.921,1.921,0,0,1-.146.891c-.1.281-.205.583-.238.675s-.124.308-.189.486-.157.4-.2.5a.9.9,0,0,0-.076.232.892.892,0,0,1-.081.227,8.621,8.621,0,0,0-.308.847c-.13.432.065.993.772,2.219a3.4,3.4,0,0,0,.4.588c.151.146.157.211.054.664Zm.2,1.263c.016-.065.043-.216.065-.335s.07-.437.108-.7c.167-1.01.173-1.09.108-1.3a1.9,1.9,0,0,0-.2-.426c-.07-.119-.211-.362-.308-.54s-.308-.556-.47-.842l-.291-.513.1-.3c.059-.162.157-.426.221-.588s.14-.383.173-.486c.092-.313.2-.486.313-.486a.169.169,0,0,1,.13.049,2.11,2.11,0,0,0,.335.2,2.627,2.627,0,0,1,1.171,1.328c.966,1.976.945,1.9.853,2.8-.07.659.07.491-1.263,1.549C49.5,646.021,49.305,646.134,49.359,645.9Zm1.5,5.2a.222.222,0,0,0-.113.081c-.151.184-.157-.027-.022-.545a6.442,6.442,0,0,0,.238-1.08c0-.108-.41-.491-1.031-.961-.372-.286-.3-.324.734-.389a4.465,4.465,0,0,0,.7-.076.579.579,0,0,0,.205-.308c.054-.14.135-.329.173-.41a.834.834,0,0,0,.081-.205,1.146,1.146,0,0,1,.1-.281c.054-.124.113-.275.135-.329.054-.162.146-.032.356.507.1.254.238.583.3.74.14.308.13.3.939.367.707.054.918.092.918.156a1.451,1.451,0,0,1-.362.34c-.205.157-.491.4-.648.54l-.275.259.049.243c.027.135.119.507.205.837a1.96,1.96,0,0,1,.113.642c-.027.027-.135-.022-.254-.113a2.038,2.038,0,0,0-.286-.194c-.043-.022-.27-.156-.5-.308a3.026,3.026,0,0,0-.486-.27,5.993,5.993,0,0,0-1,.6,1.563,1.563,0,0,1-.275.151Zm2.213,5.258c-.291-.049-.308-.07-.324-.572-.005-.194-.011-.2-.248-.238-.313-.043-.4-.173-.4-.545v-.286l.178.005a1.757,1.757,0,0,1,.308.043c.119.032.14.076.173.356.059.448.065.459.3.459.259,0,.313.059.356.41s-.022.416-.34.367Zm3.26-.081a2.706,2.706,0,0,1-1.144-.011,4.741,4.741,0,0,1-2.105-2.008,1.525,1.525,0,0,1,0-1.225,1.946,1.946,0,0,1,.9-.691,4.167,4.167,0,0,1,2.019-.1c.167.086.016.13-.518.146a1.87,1.87,0,0,0-.961.167.976.976,0,0,0-.518,1.1,2.161,2.161,0,0,0,.669,1.29,4.39,4.39,0,0,0,1.225,1c.178-.07.14-.837-.054-1.063a1.684,1.684,0,0,1-.335-.669c.022-.049.14-.092.291-.113s.367-.054.5-.081c.194-.038.259-.027.345.043.054.049.41.5.794.988s.934,1.155,1.231,1.458c.518.54.54.556.621.453a2.626,2.626,0,0,0,.383-.912c.049-.308.13-.394.394-.437.108-.022.281-.059.378-.092.356-.108.4.016.221.561a2.36,2.36,0,0,1-.869,1.269,4.23,4.23,0,0,1-1.117.61,7.572,7.572,0,0,1-.9-.9C56.884,656.051,57.046,656.137,56.334,656.272Zm4.4,4.891a2.126,2.126,0,0,1-1.026.21c-.448.005-.54-.011-.713-.119a3.456,3.456,0,0,1-.8-.842c-.027-.065-.108-.21-.178-.329a2.917,2.917,0,0,1-.41-.842c0-.205.157-.1.4.27.421.637.734.81,1.787.955a3.2,3.2,0,0,0,1.468-.065c.335-.092.723-.416.621-.518-.049-.049-.108-.043-.254.027a.834.834,0,0,1-.874-.065c-.286-.205-.394-.367-.394-.583,0-.27.086-.432.394-.74a1.354,1.354,0,0,1,.632-.4,2.33,2.33,0,0,1,1.517-.113c.367.194.178,1.177-.362,1.884A4.307,4.307,0,0,1,60.733,661.163Zm13.679,6.175a4.63,4.63,0,0,1-.583.864c-.135.113-.389.043-1.15-.3a.791.791,0,0,0-.232-.076.651.651,0,0,1-.205-.07c-.081-.043-.291-.146-.47-.232-.3-.146-.329-.173-.443-.48a1.985,1.985,0,0,1-.119-.475c-.005-.227-.14-.232-.572-.016l-.394.2-.291-.156c-.243-.135-.529-.281-1.474-.75a.864.864,0,0,1-.567-.766.423.423,0,0,0-.054-.248c-.032-.021-.157.016-.275.076a.927.927,0,0,1-.313.113A11.912,11.912,0,0,1,65.629,664a1.515,1.515,0,0,0-.367-.221,1.264,1.264,0,0,1-.583-.491c-.065-.183-.108-.194-.291-.048a4.18,4.18,0,0,1-1.922.648c-.626,0-.874-.216-1.371-1.2-.286-.567-.383-.907-.254-.907.027,0,.1.092.157.2a1.375,1.375,0,0,0,1.317.875,4.53,4.53,0,0,0,1.814-.157c.254-.124.313-.27.362-.885l.038-.448.3-.119a3.654,3.654,0,0,0,.383-.167c.167-.1.189-.016.173.583-.022.777.038.993.308,1.155.119.07.572.367,1.015.658s.9.6,1.031.686a.909.909,0,0,0,.335.157c.059,0,.205-.14.367-.367.248-.329.3-.373.6-.464.507-.156.545-.1.211.319-.383.48-.475.626-.475.766,0,.243.173.356,1.673,1.134.534.275.594.243.421-.232-.432-1.209-.545-1.533-.6-1.744l-.059-.232.464-.459.47-.453.259.032c.254.032.507.076,1.663.292.329.065.653.119.729.124a.161.161,0,0,1,.151.113,1.314,1.314,0,0,1-.475.632,2.824,2.824,0,0,1-1.107-.162c-.264-.065-.772-.178-1.069-.243-.1-.022-.157-.005-.178.043a22.116,22.116,0,0,0,1.074,3.147,1.7,1.7,0,0,0,.443.232c.178.07.4.162.486.2.6.259.583.259.713.1a5.854,5.854,0,0,0,.448-1.679c.13-.664.135-.837.022-1.052-.049-.092-.065-.178-.038-.2s.189-.167.372-.318c.378-.324.486-.345.534-.119a4.413,4.413,0,0,0,.615,1.009c.07.092.113.194.092.221a2.872,2.872,0,0,1-.464.308c-.34.2-.453.3-.518.453a8.668,8.668,0,0,0-.345,1.22,1.946,1.946,0,0,1-.14.4Zm1.981,3.941c-.13.1-.205.108-.47.081a3.254,3.254,0,0,0-1.074.113l-.162.038.135-.119a1.125,1.125,0,0,1,.286-.173c.189-.07.184-.13-.016-.232-.221-.114-.275-.238-.189-.432.227-.524.993-.853,1.306-.556.146.135.157.243.032.378a.234.234,0,0,1-.383-.011c-.081-.135-.48-.156-.534-.027-.065.173.292.41.918.6.167.054.308.129.308.162s-.07.119-.157.178Zm4.119-5.047c-.318.27-.378.3-.534.27s-.178-.016-.211.119a2.971,2.971,0,0,1-.653.934l-.27.286v.632a2.116,2.116,0,0,1-.1.826c-.049.113-.13.292-.173.394-.092.216-.189.238-.567.108s-1.35-.41-1.6-.459a1.771,1.771,0,0,1-.394-.135c-.14-.07-.162-.113-.162-.308a2.594,2.594,0,0,1,.286-.972c.086-.054.167,0,.264.167s.243.216.556.156a2.43,2.43,0,0,0,1.107-.513.472.472,0,0,0-.049-.167c-.032-.049-.124-.254-.216-.453a3.14,3.14,0,0,0-.335-.556c-.162-.178-.178-.189-.27-.1a.234.234,0,0,1-.14.07c-.027-.011-.259-.243-.518-.513-.432-.453-.47-.507-.47-.713a1.018,1.018,0,0,1,.167-.507,2,2,0,0,1,.551-.691,1.679,1.679,0,0,1,.362.308,7.013,7.013,0,0,1,1.371,2.456c.135.378.211.41.362.167a3.275,3.275,0,0,0,.394-.864c.086-.291.092-.356.032-.507l-.076-.173.421-.4a2.257,2.257,0,0,1,.475-.383.473.473,0,0,1,.124.227,1.7,1.7,0,0,0,.345.486.966.966,0,0,1,.275.394c0,.07-.13.221-.356.416Zm1.376,1.49a7.349,7.349,0,0,1-.632,2.321c-.157.292-.448.61-.507.551a1.719,1.719,0,0,1,.038-.524c.043-.27.124-.885.189-1.377.2-1.625.232-1.862.265-1.954a5.619,5.619,0,0,1,.874-.907.053.053,0,0,1,.049.054C82.163,665.961,82.028,666.857,81.888,667.721Zm6.024,3.028c-.049.13-.108.3-.135.372a1.48,1.48,0,0,1-1.107,1.063,3.077,3.077,0,0,1-2.645-.032,1.332,1.332,0,0,1-.513-.945c0-.6.637-2.084.9-2.084.119,0,.092.124-.108.524-.238.48-.265.664-.162.977a.975.975,0,0,0,.691.664A3.2,3.2,0,0,0,87.362,671c.14-.13.157-.173.124-.351a4.626,4.626,0,0,0-.275-1.01c-.232-.6-.232-.621.032-.993.238-.335.313-.383.416-.264a4.3,4.3,0,0,1,.356,1.161,1.943,1.943,0,0,1-.1,1.209Zm.977.076c-.022-.372-.07-1.031-.113-1.468s-.081-1.036-.081-1.328v-.534l.3-.459c.167-.248.329-.448.367-.432a2.943,2.943,0,0,1,.108.988c.022.529.032,1.414.022,1.965a3.175,3.175,0,0,1-.351,1.792C88.976,671.629,88.927,671.532,88.889,670.825Zm6.629,2.456a1.261,1.261,0,0,1-.372-.135,1.555,1.555,0,0,0-.351-.135.7.7,0,0,0-.275.194l-.2.194-.265-.1c-.324-.119-.5-.232-.5-.313a1.264,1.264,0,0,1,.545-.518.994.994,0,0,1,.318.108c.3.151.437.135.648-.081a.847.847,0,0,1,.238-.189,2.442,2.442,0,0,1,.4.146c.254.113.335.173.335.259C96.036,672.855,95.648,673.281,95.518,673.281Zm10.445-5.214a1.878,1.878,0,0,1-.453.243c-.178.065-.4.157-.5.2a.9.9,0,0,1-.248.076.907.907,0,0,0-.3.189.843.843,0,0,1-.34.189,1.4,1.4,0,0,0-.362.081c-.227.07-.659.194-1.323.378-.146.043-.426.124-.621.178s-.507.146-.7.2-.5.135-.675.189-.48.135-.675.189c-.351.1-.891.254-1.242.362a3.31,3.31,0,0,1-.621.076,4.738,4.738,0,0,0-1.544.324.736.736,0,0,1-.416.075.6.6,0,0,1-.524-.167.591.591,0,0,1-.189-.243c0-.167-.162-.059-.308.205s-.173.286-.394.329a5.467,5.467,0,0,1-1.236-.016c-.049-.022-.113.092-.2.351-.394,1.155-1.1,1.97-1.7,1.97a7.283,7.283,0,0,1-1.868-.6c-.189-.151.124-.2.432-.07.453.189.88.065,1.522-.432a3.348,3.348,0,0,0,1.161-1.441,2.753,2.753,0,0,0-.594-.88c-.1-.059-.054-.259.124-.589.194-.356.265-.41.383-.264.491.6.723.853.885.918a2.043,2.043,0,0,0,.858.038c.788-.043.772-.032.772-.637a.9.9,0,0,1,.2-.707c.3-.437.34-.4.34.275,0,.858.086.95.75.777a3.68,3.68,0,0,1,.572-.108,2.531,2.531,0,0,0,.453-.081,6.506,6.506,0,0,1,.761-.13c1.117-.124,1.393-.378,1.107-1.01-.119-.264-.265-.588-.367-.831a6.151,6.151,0,0,0-.718-1.36c-.216-.238-.221-.313-.076-.729.14-.4.184-.443.335-.3a2.11,2.11,0,0,0,.842.394.643.643,0,0,1,.318.14,1.492,1.492,0,0,1-.238.821l-.135.178.211.5a2.522,2.522,0,0,1,.232.955c.016.3.049.459.092.459a2.365,2.365,0,0,0,.448-.448,9.164,9.164,0,0,1,1.835-1.582c.232-.1.259-.1.567-.022a1.9,1.9,0,0,1,.934.48c.2.189.227.248.227.443a.463.463,0,0,0,.054.265c.032.022.157-.016.275-.076a1.016,1.016,0,0,1,.27-.113.821.821,0,0,0,.227-.076c.1-.043.313-.14.486-.216.281-.124.313-.151.281-.259a7.262,7.262,0,0,0-.81-1.463c-.41-.642-.513-.766-.659-.8-.221-.059-.248-.157-.178-.61.119-.723.092-.686.335-.486a.732.732,0,0,0,.275.156,3.934,3.934,0,0,1,1.074.265.383.383,0,0,1-.038.221,4.178,4.178,0,0,0-.243.82,2.065,2.065,0,0,0,.216.507,4.4,4.4,0,0,1,.707,1.749C106.087,667.943,106.087,667.953,105.963,668.067Zm1.825-.615c-.038,0-.151-.151-.254-.34s-.211-.378-.243-.426c-.119-.2-.426-.729-.529-.907-.059-.1-.151-.265-.205-.351s-.173-.3-.264-.459l-.335-.594-.167-.292.059-.5a3.289,3.289,0,0,1,.092-.556c.059-.1.189-.059.243.081a2.655,2.655,0,0,0,.178.335c.119.183.318.551.761,1.393a10.86,10.86,0,0,1,.648,1.533c.108.367.119,1.085.016,1.085Zm23.319-53.759c.372-.059,1.274-.254,1.5-.324a1.11,1.11,0,0,1,.642-.011,10.684,10.684,0,0,0,1.3.756c.275.14.367.286.567.9a12.837,12.837,0,0,1,.372,1.3c.065.265.151.6.194.756s.113.464.162.707c.092.421.092.443-.016.648a9.537,9.537,0,0,1-.713,1.031c-.108.124-.205.075-.713-.367-.275-.243-.583-.507-.675-.588a.393.393,0,0,1-.178-.367,7.6,7.6,0,0,0-.464-1.943.917.917,0,0,1-.076-.238,2.273,2.273,0,0,0-.14-.372c-.146-.318-.313-.47-.858-.772-.086-.048-.232-.135-.324-.194s-.281-.167-.432-.243-.3-.173-.345-.205a1.083,1.083,0,0,0-.184-.119C130.459,613.9,130.6,613.768,131.107,613.692Zm-21.284,48.625c-.076.1-.124.119-.291.1a1.317,1.317,0,0,1-.356-.1c-.14-.065-.157-.1-.146-.308a.8.8,0,0,1,.1-.367c.081-.13.108-.135.378-.108a1.365,1.365,0,0,1,.345.065C109.941,661.648,109.92,662.177,109.823,662.318Zm2.785,4.48a1.244,1.244,0,0,1-1.015.756,4.868,4.868,0,0,1-1.592.173c-.1-.1.054-.205.329-.243a1.8,1.8,0,0,0,.912-.372,3.666,3.666,0,0,0,.772-1.63,1.311,1.311,0,0,0,.022-.972,1.5,1.5,0,0,0-.912-.41,1.011,1.011,0,0,1-.421-.146,1.712,1.712,0,0,1-.2-.8v-.2l.275.038a2.7,2.7,0,0,1,.578.178,2.643,2.643,0,0,1,1.015.977,2.948,2.948,0,0,1,.329,1.555C112.727,666.458,112.716,666.534,112.608,666.8Zm10.262-11.654a4.643,4.643,0,0,1-.205.664,11.271,11.271,0,0,1-1.63,1.905c-.372.362-.772.767-.885.9l-.205.248.092.205a2.331,2.331,0,0,1,.205,1.652,1.429,1.429,0,0,1-.534.567,1.859,1.859,0,0,1-1.279-.065,1.616,1.616,0,0,1-.394-.248c-.151-.162-.243-.135-.583.194a2.66,2.66,0,0,1-.486.394c-.092.049-.567.4-1.047.772s-1.139.864-1.468,1.09a6.8,6.8,0,0,0-.626.464c-.016.032-.092.054-.162.054-.1,0-.216-.108-.464-.421-.189-.227-.464-.561-.621-.74-.291-.335-.642-.756-1.371-1.663l-.432-.529.032-.389c.043-.48.1-.551.254-.335a32.759,32.759,0,0,0,2.462,2.807c.14.043.308-.032.68-.308.178-.13.383-.275.459-.329s.378-.286.675-.524.7-.545.891-.686.529-.41.745-.6c.426-.378.453-.448.3-.815a2.666,2.666,0,0,1-.065-1.015,3.284,3.284,0,0,1,.329-1.695l.113-.119.184.211a4.465,4.465,0,0,1,.68,1.393c.113.518.124.513,1.414-.793a14.227,14.227,0,0,0,2.337-2.764c.259-.572.184-.653-.351-.378a2.142,2.142,0,0,0-1.026.934c-.076.383-.329-.011-.378-.588a.9.9,0,0,1,.421-1,4.433,4.433,0,0,1,1.15-.567c.178-.07.421-.178.54-.243s.34-.178.491-.259a4.57,4.57,0,0,0,.54-.351c.394-.308.48-.291.583.119.043.189.1.389.113.448.027.086-.086.243-.54.729A2.876,2.876,0,0,0,122.87,655.144Zm1.792.95a.952.952,0,0,0-.275.113.415.415,0,0,1-.243.059c-.108-.016-.124-.065-.167-.443-.049-.41-.043-.432.07-.529a.456.456,0,0,1,.194-.1,1.289,1.289,0,0,0,.3-.108c.308-.135.367-.135.394.011.016.07.038.265.054.437C125.018,655.889,124.937,656.029,124.662,656.094Zm4.156-7.293c-.259.205-.551.453-.653.54l-.184.167.086.308c.049.167.124.437.167.594.113.4.162.794.1.794a7.441,7.441,0,0,1-1.069-.653,1.486,1.486,0,0,0-.4-.211.768.768,0,0,0-.27.13,13.155,13.155,0,0,1-1.193.734c-.086,0-.065-.184.119-.853.092-.345.167-.691.173-.761.005-.1-.108-.227-.48-.54-.265-.227-.556-.464-.648-.529-.124-.086-.146-.135-.1-.178a3.379,3.379,0,0,1,.858-.13,2.6,2.6,0,0,0,.858-.146,1.9,1.9,0,0,0,.184-.389c.416-1.085.41-1.08.545-1.053a.155.155,0,0,1,.1.124,2.392,2.392,0,0,0,.113.324c.1.238.232.556.329.821.081.221.227.27.891.313.713.043.945.081.945.156a2.584,2.584,0,0,1-.47.437Zm.718-3.455c.113.6.119.7.038.7-.065,0-1.922-1.458-2.078-1.63a4.021,4.021,0,0,1-.259-1.231,3.574,3.574,0,0,1,.421-1.187c.119-.238.34-.686.486-1a2.742,2.742,0,0,1,1.026-1.268c.524-.313.578-.34.68-.329.065.005.124.076.151.173s.076.211.1.27.086.205.124.324.146.4.232.637c.151.4.157.421.065.578-.054.092-.194.351-.318.583s-.243.437-.265.47-.113.189-.2.351-.227.41-.308.551c-.2.356-.194.416.108,2.013Zm3.741-2.71a13.54,13.54,0,0,1-.75,1.522c-.135.238-.318.572-.4.745s-.189.367-.227.432c-.146.275-.5.448-1.123.551a2.113,2.113,0,0,0-.394.1c-.232.081-.308-.005-.356-.41a4.738,4.738,0,0,0-.113-.551,4.644,4.644,0,0,1-.113-.583c-.027-.264-.022-.329.07-.432a3.535,3.535,0,0,0,.437-.686c.076-.135.162-.281.194-.324a7.928,7.928,0,0,0,.486-1,1.645,1.645,0,0,0-.13-1.4,1.9,1.9,0,0,1-.1-.27c-.027-.092-.1-.286-.157-.432s-.173-.453-.254-.675-.167-.453-.194-.513a2.881,2.881,0,0,1-.178-2.224c.184-.61.275-.923.4-1.393a1.9,1.9,0,0,1,.81-1.355c.4-.335.561-.356.7-.1.054.086.27.453.48.81a2.826,2.826,0,0,1,.362.729c-.011.043-.065.21-.108.362s-.124.416-.173.567c-.124.4-.264.912-.4,1.425l-.119.437.108.345c.135.416.265.794.335.939.027.059.113.3.194.54.259.756.3.858.372,1.036a.957.957,0,0,1,.081.221.712.712,0,0,0,.076.211C133.428,641.946,133.461,642.178,133.277,642.637Zm1.587-4.092c-.238.772-.308.853-.945,1.1a3.472,3.472,0,0,0-.513.232c-.108.086-.362.027-.383-.092a2.315,2.315,0,0,0-.124-.335,1.445,1.445,0,0,1-.1-.281.9.9,0,0,0-.076-.232c-.043-.1-.13-.308-.194-.47l-.119-.286.167-.335a6.425,6.425,0,0,0,.3-.788c.081-.254.173-.567.216-.7a3.559,3.559,0,0,0,.167-1.171,6.878,6.878,0,0,0-.475-.891c-.243-.41-.47-.794-.5-.848s-.086-.135-.113-.173c-.065-.086-.372-.642-.664-1.209l-.194-.378.005-1.511a5.044,5.044,0,0,1,.124-1.857,2.436,2.436,0,0,1,.238-.513,4.17,4.17,0,0,1,.7-.788.7.7,0,0,1,.205.173c.081.1.362.432.621.745.416.5.464.583.432.729-.016.086-.054.54-.081,1s-.076.934-.1,1.053a2.4,2.4,0,0,0-.059.518c0,.313.065.475.518,1.252a2.731,2.731,0,0,1,.184.34c0,.027.642,1.155.81,1.425.578.939.7,1.2.7,1.49A14.579,14.579,0,0,1,134.864,638.545Zm1.43-6.17a1.076,1.076,0,0,1-.259.324,5.954,5.954,0,0,1-1.063.691,9.782,9.782,0,0,1-.988-1.668.251.251,0,0,1,.054-.146,6,6,0,0,0,.243-1.868c.049-1.123.049-1.128-.556-1.825-.621-.713-1.717-2.057-1.873-2.294-.313-.475-.378-.9-.491-3.061-.032-.637-.027-.707.086-.972a2.259,2.259,0,0,1,.567-.853,4.375,4.375,0,0,1,.713.534c.351.292.675.578.729.632.065.081.1.3.146.966.151,2.073.146,2.046.291,2.278.076.113.324.443.556.729s.621.75.858,1.047.621.745.847,1a1.773,1.773,0,0,1,.453.675A22.443,22.443,0,0,1,136.295,632.375Zm.416-7.142c-.027.146-.157.308-.556.691a2.912,2.912,0,0,1-.6.5,3.77,3.77,0,0,1-.648-.691l-.556-.691-.022-1.1a6.853,6.853,0,0,0-.184-1.895c-.059-.205-.453-.583-1.738-1.646a10.11,10.11,0,0,1-1.468-1.463,6.5,6.5,0,0,1-.248-.7c-.086-.286-.216-.7-.3-.9s-.162-.475-.189-.594-.076-.3-.108-.4a2.513,2.513,0,0,1,.227-1.609c.119-.286.205-.34.362-.21.049.038.41.259.8.491.68.4.718.432.745.615a11.814,11.814,0,0,0,.3,1.171c.092.313.151.556.27,1.139a1,1,0,0,0,.232.459c.216.227,1.56,1.43,2.537,2.273a6.042,6.042,0,0,1,.826.81,3.773,3.773,0,0,1,.162,1.042,23.6,23.6,0,0,1,.157,2.721Z" transform="translate(-37.727 -573.156)" fill="#262e67" fill-rule="evenodd"/>
  <path id="Path_43" data-name="Path 43" d="M751.054,968.971l-1.364-.621.432.205A5.253,5.253,0,0,0,751.054,968.971Z" transform="translate(-709.222 -916.078)" fill="#050606"/>
  <path id="Path_44" data-name="Path 44" d="M1314.468,853.724h.005l.626-.26.022-.01c.151-.065.34-.157.421-.194l-1.082.465h.008Z" transform="translate(-1243.505 -807.201)" fill="#050606"/>
  <path id="Path_45" data-name="Path 45" d="M847.2,1012.65l.029.016Z" transform="translate(-801.468 -957.987)" fill="#050606"/>
  <path id="Path_46" data-name="Path 46" d="M982.757,827.837c1.474,1.409,2.008,1.916,2.64,2.537a6.357,6.357,0,0,0,.734.664l6.6-6.608-10.457,2.9c.1.116.276.3.487.506Z" transform="translate(-929.247 -779.927)" fill="#e82129"/>
  <path id="Path_47" data-name="Path 47" d="M758.27,827.966c.464-.448,1.161-1.128,1.56-1.506a4.517,4.517,0,0,0,.675-.734l-6.37-1.738-.005.005-.15-.047-2.462-.672c-.084-.019-.206-.051-.325-.085l-.2-.058L750,822.86l6.569,6.693a16.029,16.029,0,0,0,1.7-1.587Z" transform="translate(-709.515 -778.442)" fill="#e82129"/>
  <path id="Path_48" data-name="Path 48" d="M959.266,454.217V403.01h-.486v51.207c.161.015.323-.028.486,0Z" transform="translate(-907.025 -381.255)" fill="#231f20"/>
  <path id="Path_49" data-name="Path 49" d="M958.78,1475.74v3.956h.486v-3.949Z" transform="translate(-907.025 -1396.079)" fill="#231f20"/>
  <path id="Path_50" data-name="Path 50" d="M961.689,1302.25H961.5A.154.154,0,0,0,961.689,1302.25Z" transform="translate(-909.598 -1231.954)" fill="#050606"/>
  <g id="Group_3" data-name="Group 3" transform="translate(5.613 31.57)">
    <path id="Path_51" data-name="Path 51" d="M959.7,1060.02h-.009l.017.007Z" transform="translate(-913.499 -1034.37)"/>
    <path id="Path_52" data-name="Path 52" d="M825.82,1016.74c1.109.821,2.215,1.649,3.346,2.435.319.221.734.513.918.648s.6.426.918.648.734.513.918.648.47.329.621.432a2.816,2.816,0,0,1,.367.286l.334.289.308-.273a4.922,4.922,0,0,1,.524-.394l2-1.409,1.835-1.3c.453-.318.518-.367,1.188-.842.356-.248.766-.54.907-.637a3.954,3.954,0,0,0,.4-.3.552.552,0,0,1,.194-.119c.038,0,.038-.021-.005-.065s-.086-.043-.162.027a.361.361,0,0,1-.173.092,1.18,1.18,0,0,0-.292.1c-.531.252-.972.457-1.214.567l-5.508,2.71Z" transform="translate(-786.855 -993.426)" fill="#2c6433"/>
    <path id="Path_53" data-name="Path 53" d="M196.761,584.85a2.616,2.616,0,0,0-.529.567c-.119.146-.254.308-.3.356a1.359,1.359,0,0,0-.167.211c-.081.113-.13.178-.345.437-.13.157-.864,1.069-1.582,1.97-.594.745-.659.8-1.231.934-.119.027-.41.1-.648.167s-.567.151-.729.194-.464.119-.675.178c-.551.156-1.215.335-1.43.389-.1.022-.372.1-.594.162s-.588.162-.81.221-.54.14-.7.189-.432.108-.6.151a2.321,2.321,0,0,0-.356.1,3.392,3.392,0,0,1-.453.113l-21.526,5.972-7.936,7.793-.793.016-.788.022-4.173-4.289-4.151,4.284-.842-.016-.842-.016-8.155-7.94-12.914-3.571h0c-2.295-.616-4.585-1.245-6.879-1.855q-2.427-.645-4.852-1.292c-.719-.192-1.432-.436-2.155-.6a5.844,5.844,0,0,1-2.022-.63,4.391,4.391,0,0,1-.91-.912l-2.681-3.272a41.225,41.225,0,0,0,2.916,4.39,2.679,2.679,0,0,0,.457.5,2.789,2.789,0,0,0,.668.353q3.554,1.481,7.106,2.966c1.382.577,2.81,1.108,4.214,1.68h0l.046.019q.246.1.491.2l24.127,9.984H141.79l-15.418-6.209a.286.286,0,0,1-.069-.027l-1.613-.65c-.612-.193-2.131-.833-3.144-1.266L119,595.8l-8.234-3.192-2.453-.951c1.618.627,3.194,1.5,4.766,2.235s3.128,1.472,4.693,2.206l3.012,1.35h0l4.551,2.041a.366.366,0,0,1,.158.044c.212.106.425.21.637.314l11.139,5c.066.021.1.039.078.055l1.45.652h.048l1.364.621h0a.081.081,0,0,1,.063.029l2,.91c.043.016.119.054.162.076.086.054.443.216.756.351.1.043.3.13.432.194s.281.119.324.135.119.054.162.076l6.072,2.558h.009l-3.623-3.605-3.172-1.343.128.053a.049.049,0,0,1-.008-.026,22.587,22.587,0,0,1,3.088-.005c.139.051,2.571,2.474,3.31,3.271l.548.354.5-.473c.84-.891,3.116-3.144,3.214-3.163.173-.034,1.579-.039,2.423-.021l1.208-.01-4,1.678c-.317.287-.746.7-1.348,1.29-.852.847-1.647,1.835-1.784,1.951h0l9.79-4.274h0l11.453-5.234.066.018,13.5-6.13,6.149-2.874a.254.254,0,0,0-.039-.014l-4.682,1.841-19.454,7.751a.139.139,0,0,1-.135.054l-5.369,2.139a.87.87,0,0,1-.117.047l-.452.18a.751.751,0,0,1-.123.049l-.714.285c-.05.05-.094.068-.135.054l-.368.147v.008l-.06.016-.424.169a.168.168,0,0,1-.087.035l-.573.228h-.174c-.165.015-.4.023-.782.032-.283.006-.5.009-.656.006H156.7l9.775-4.021.018-.008,3.924-1.614a.726.726,0,0,1,.23-.075l.47-.195a3.142,3.142,0,0,1,.441-.183l.479-.2c.075-.036.148-.072.21-.1a.587.587,0,0,1,.211-.076l.017,0,.539-.224.151-.077a.61.61,0,0,1,.215-.075l.751-.311c.127-.056.243-.1.344-.143l1.048-.435a.164.164,0,0,1,.059-.024l10.914-4.528a3.7,3.7,0,0,1,.417-.173.945.945,0,0,0,.216-.081c.092-.043.243-.119.335-.162a.877.877,0,0,1,.221-.081,1.319,1.319,0,0,0,.308-.113c.254-.119.351-.156.869-.373.162-.07.372-.151.459-.189s.3-.124.459-.189.372-.151.459-.189.3-.124.459-.189c.459-.189.6-.248.869-.373a1.319,1.319,0,0,1,.308-.113.716.716,0,0,0,.211-.076c.081-.038.238-.108.34-.151s.3-.135.448-.194a1.466,1.466,0,0,1,.329-.119c.146,0,.545-.5,1.22-1.533.1-.146.437-.648.707-1.031.1-.151.3-.426.426-.621s.254-.362.27-.378a1.749,1.749,0,0,0,.27-.426.136.136,0,0,1,.07-.1,2.646,2.646,0,0,0,.464-.707c.032-.065.081-.119.113-.119s.054-.038.054-.081-.016-.081-.032-.081Z" transform="translate(-103.99 -584.85)"/>
  </g>
  <rect id="Rectangle_1" data-name="Rectangle 1" width="67.217" height="0.486" transform="translate(18.209 51.724)" fill="#231f20"/>
  <g id="Group_4" data-name="Group 4" transform="translate(50.333 50.307)">
    <path id="Path_54" data-name="Path 54" d="M934.051,934.47a1.171,1.171,0,1,1,.682-2.124,1.348,1.348,0,1,0,0,1.9A1.164,1.164,0,0,1,934.051,934.47Z" transform="translate(-932.43 -931.95)" fill="#fff"/>
    <path id="Path_55" data-name="Path 55" d="M969.55,940.223l1.813-.589-1.121,1.542V939.27l1.121,1.542Z" transform="translate(-967.546 -938.875)" fill="#fff"/>
  </g>
  <g id="Group_5" data-name="Group 5" transform="translate(44.74 72.655)">
    <path id="Path_56" data-name="Path 56" d="M828.822,1350.493l.02-.081.143.029c.3.06.388,0,.617-.927l.579-2.333c.229-.924.182-1.021-.111-1.108l-.14-.042.02-.081,3.559.884-.342,1.375-.06-.015-.024-.25a1.4,1.4,0,0,0-1.119-1.4l-.236-.058c-.283-.07-.35.027-.577.938l-.265,1.065.31.077a.841.841,0,0,0,.958-.485l.084-.136.06.015-.432,1.739-.061-.015-.01-.16a.84.84,0,0,0-.62-.876l-.31-.077-.295,1.187c-.226.91-.212,1.028.064,1.1l.377.094c.728.181,1.162-.1,1.695-.917l.138-.209.061.015-.392,1.578-3.694-.917Z" transform="translate(-828.82 -1345.95)" fill="#231f20"/>
    <path id="Path_57" data-name="Path 57" d="M918.19,1370.236l0-.083h.181c.369,0,.342-.18.054-1.062l-.227-.684-1.555-.068-.109.267a2.39,2.39,0,0,0-.2.846c-.015.333.092.6.41.63l.145.013,0,.083-1.562-.068,0-.083.077,0c.279-.009.457-.126,1.023-1.45l1.324-3.085.444.019,1.282,3.582c.359,1.01.445,1.1.715,1.144l.055.009,0,.083-2.061-.09Zm-1.505-1.978,1.485.065-.662-2.018Z" transform="translate(-910.66 -1364.435)" fill="#231f20"/>
    <path id="Path_58" data-name="Path 58" d="M1023.394,1363.989l-.015-.082.177-.038c.36-.077.295-.25-.177-1.048l-.37-.619-1.532.269-.049.283a2.383,2.383,0,0,0-.01.869c.058.328.22.568.537.526l.145-.018.015.082-1.539.271-.015-.082.074-.02c.27-.068.419-.222.686-1.637l.627-3.3.438-.077,2.025,3.22c.568.909.672.976.945.963l.056,0,.015.082-2.032.357Zm-1.9-1.606,1.464-.257-1.082-1.827Z" transform="translate(-1010.21 -1358.646)" fill="#231f20"/>
  </g>
  <g id="Group_6" data-name="Group 6" transform="translate(23.463 22.826)">
    <path id="Path_59" data-name="Path 59" d="M452.3,425.411A28.877,28.877,0,0,0,462.7,480.884v-.345a28.533,28.533,0,0,1-.224-57.034v-.345a28.644,28.644,0,0,0-10.183,2.25Z" transform="translate(-434.66 -423.144)"/>
    <path id="Path_60" data-name="Path 60" d="M998.706,440.495a28.852,28.852,0,0,0-26.26-17.635v.345a28.533,28.533,0,0,1-.207,57.063v.345A28.893,28.893,0,0,0,998.706,440.5Z" transform="translate(-943.221 -422.86)"/>
    <path id="Path_61" data-name="Path 61" d="M588.333,571.584a20.946,20.946,0,0,0,7.646,40.24V611.5a20.623,20.623,0,0,1-.224-41.226v-.324a20.769,20.769,0,0,0-7.422,1.633Z" transform="translate(-567.935 -562.01)"/>
    <path id="Path_62" data-name="Path 62" d="M992.4,590.885A20.647,20.647,0,0,1,972.24,611.5v.324a20.946,20.946,0,0,0,.207-41.876v.324A20.647,20.647,0,0,1,992.4,590.886Z" transform="translate(-943.221 -562.01)"/>
    <path id="Path_63" data-name="Path 63" d="M691.192,691.523a14.686,14.686,0,0,0,10.127,25.069v-.324a14.362,14.362,0,0,1-.224-28.714v-.324a14.581,14.581,0,0,0-9.9,4.293Z" transform="translate(-673.275 -672.959)"/>
    <path id="Path_64" data-name="Path 64" d="M985.887,702.278a14.381,14.381,0,0,1-13.647,14.345v.324a14.687,14.687,0,0,0,.207-29.328v.325A14.381,14.381,0,0,1,985.887,702.278Z" transform="translate(-943.221 -673.328)"/>
  </g>
  <g id="Group_7" data-name="Group 7" transform="translate(17.859 64.088)">
    <path id="Path_65" data-name="Path 65" d="M330.84,1201.669l.181-.085.026.056a.635.635,0,0,0,.165.224q.1.083.288-.007l2.112-.989q.2-.094.208-.223a.584.584,0,0,0-.063-.274l-.026-.056.181-.085,1.015,2.168-.743.374-.1-.223.175-.108a.53.53,0,0,0,.2-.217.367.367,0,0,0-.025-.326l-.338-.723-1.144.536.485,1.037-.21.1-.485-1.037-1.286.6.389.83a.409.409,0,0,0,.243.245.527.527,0,0,0,.3,0l.2-.057.1.223-.767.322-1.08-2.306Z" transform="translate(-330.84 -1199.529)" fill="#262e67"/>
    <path id="Path_66" data-name="Path 66" d="M355.84,1249.6l.173-.1.031.053a.589.589,0,0,0,.189.209q.108.069.3-.042l2-1.153q.194-.112.188-.24a.59.59,0,0,0-.086-.268l-.031-.053.173-.1.69,1.2-.173.1-.031-.053a.615.615,0,0,0-.186-.208c-.072-.048-.168-.038-.289.032l-2.28,1.314.467.811a.383.383,0,0,0,.171.168.392.392,0,0,0,.205.032.746.746,0,0,0,.2-.051l.333-.136.124.214-.9.481Z" transform="translate(-354.49 -1244.635)" fill="#262e67"/>
    <path id="Path_67" data-name="Path 67" d="M385.2,1295.456l.164-.114.035.051a.637.637,0,0,0,.2.193c.074.043.168.025.283-.055l1.915-1.331c.122-.085.178-.17.167-.255a.591.591,0,0,0-.109-.26l-.035-.051.164-.114,1.367,1.966-.669.494-.141-.2.154-.136a.527.527,0,0,0,.16-.248.368.368,0,0,0-.079-.318l-.456-.655-1.038.721.654.94-.191.133-.654-.94-1.167.811.524.753a.413.413,0,0,0,.281.2.531.531,0,0,0,.3-.052l.187-.09.141.2-.7.448-1.453-2.091Z" transform="translate(-382.266 -1287.783)" fill="#262e67"/>
    <path id="Path_68" data-name="Path 68" d="M430.093,1351.4a1.381,1.381,0,0,1-.337-.75,1.342,1.342,0,0,1,.16-.765,2.381,2.381,0,0,1,.6-.712,2.217,2.217,0,0,1,.808-.443,1.38,1.38,0,0,1,.8,0,1.5,1.5,0,0,1,.706.507,1.357,1.357,0,0,1,.343.653.445.445,0,0,1-.141.426.29.29,0,0,1-.262.063.471.471,0,0,1-.258-.169.817.817,0,0,0,.188-.224.51.51,0,0,0,.069-.281.53.53,0,0,0-.139-.314.811.811,0,0,0-.784-.34,2.205,2.205,0,0,0-.991.527,2.491,2.491,0,0,0-.513.557,1.05,1.05,0,0,0-.185.566.854.854,0,0,0,.223.552,1.035,1.035,0,0,0,.44.342,1.1,1.1,0,0,0,.419.063.2.2,0,0,1-.012.094.237.237,0,0,1-.073.094.37.37,0,0,1-.256.07.818.818,0,0,1-.372-.126,1.687,1.687,0,0,1-.432-.392Z" transform="translate(-424.411 -1339.959)" fill="#262e67"/>
    <path id="Path_69" data-name="Path 69" d="M462.35,1378.567l.142-.14.077.078a.64.64,0,0,0,.23.157c.08.03.17,0,.27-.1l1.884-1.844-.319-.326a.328.328,0,0,0-.286-.126.592.592,0,0,0-.265.12l-.162.126-.173-.177.61-.565,1.871,1.911-.578.6-.173-.177.13-.16a.594.594,0,0,0,.125-.262.335.335,0,0,0-.123-.292l-.322-.329-1.867,1.828c-.106.1-.147.2-.122.279a.593.593,0,0,0,.15.239l.077.078-.142.139-1.033-1.056Z" transform="translate(-455.251 -1365.593)" fill="#262e67"/>
    <path id="Path_70" data-name="Path 70" d="M495.76,1416.142l.13-.151.047.04a.642.642,0,0,0,.243.137c.083.023.169-.019.26-.124l1.532-1.784c.091-.106.119-.2.085-.278a.61.61,0,0,0-.17-.221l-.047-.041.13-.151.969.832q.926.8.329,1.491a.811.811,0,0,1-.356.254.848.848,0,0,1-.383.038,1.491,1.491,0,0,1-.354-.091L498,1417.3a1.269,1.269,0,0,0-.005.371.4.4,0,0,0,.137.242l.011.009-.13.151-.05-.043a2.6,2.6,0,0,1-.328-.322.533.533,0,0,1-.121-.267,1.149,1.149,0,0,1,.021-.342l.21-1.229-.3-.257-.638.742q-.136.159-.084.276a.637.637,0,0,0,.172.219l.047.04-.13.151-1.049-.9Zm1.827-.7.252.217a.718.718,0,0,0,.555.232.851.851,0,0,0,.479-.321.732.732,0,0,0,.227-.519.807.807,0,0,0-.327-.494l-.245-.21-.941,1.1Z" transform="translate(-486.858 -1401.352)" fill="#262e67"/>
    <path id="Path_71" data-name="Path 71" d="M553.187,1462.223a1.489,1.489,0,0,1-.555-.662,1.318,1.318,0,0,1-.051-.787,2.387,2.387,0,0,1,.4-.846,2.361,2.361,0,0,1,.664-.653,1.3,1.3,0,0,1,.757-.206,1.518,1.518,0,0,1,.809.309,1.452,1.452,0,0,1,.534.644,1.365,1.365,0,0,1,.061.789,2.521,2.521,0,0,1-1.063,1.5,1.373,1.373,0,0,1-.766.205,1.445,1.445,0,0,1-.789-.291Zm.149-.209a.781.781,0,0,0,.838.111,2.89,2.89,0,0,0,1.268-1.788.778.778,0,0,0-.38-.75.793.793,0,0,0-.841-.115,2.83,2.83,0,0,0-1.268,1.788.787.787,0,0,0,.382.754Z" transform="translate(-540.576 -1444.394)" fill="#262e67"/>
    <path id="Path_72" data-name="Path 72" d="M597.831,1487.714l.1-.174.054.03a.584.584,0,0,0,.269.083q.129,0,.238-.19l1.143-2.028q.1-.182.029-.289a.614.614,0,0,0-.21-.184l-.054-.03.1-.174.757.427.191,3.123,1.034-1.833q.1-.182.029-.289a.611.611,0,0,0-.21-.184l-.054-.03.1-.174,1.039.586-.1.174-.054-.03a.589.589,0,0,0-.269-.084q-.129,0-.238.19l-1.4,2.483-.294-.166-.208-3.258-1.078,1.912c-.073.129-.086.23-.039.3a.6.6,0,0,0,.211.187l.054.03-.1.174-1.039-.585Z" transform="translate(-583.418 -1468.699)" fill="#262e67"/>
    <path id="Path_73" data-name="Path 73" d="M659.38,1519.114l.084-.181.056.026a.594.594,0,0,0,.275.063c.085,0,.16-.073.222-.208l.974-2.093q.094-.2.016-.3a.6.6,0,0,0-.225-.17l-.056-.026.084-.181,1.254.583-.084.181-.056-.026a.594.594,0,0,0-.275-.063c-.085,0-.16.073-.222.208l-.974,2.093q-.094.2-.016.3a.59.59,0,0,0,.225.17l.056.026-.084.181-1.253-.583Z" transform="translate(-641.645 -1498.291)" fill="#262e67"/>
    <path id="Path_74" data-name="Path 74" d="M701.484,1540.136a1.384,1.384,0,0,1-.662-.489,1.341,1.341,0,0,1-.235-.745,2.372,2.372,0,0,1,.177-.917,2.219,2.219,0,0,1,.487-.782,1.379,1.379,0,0,1,.7-.388,1.5,1.5,0,0,1,.864.1,1.364,1.364,0,0,1,.619.4.443.443,0,0,1,.085.44.289.289,0,0,1-.2.184.472.472,0,0,1-.307-.021.81.81,0,0,0,.055-.287.513.513,0,0,0-.078-.28.531.531,0,0,0-.275-.205.81.81,0,0,0-.851.087,2.206,2.206,0,0,0-.606.945,2.5,2.5,0,0,0-.175.737,1.051,1.051,0,0,0,.115.584.855.855,0,0,0,.465.372,1.036,1.036,0,0,0,.551.083,1.1,1.1,0,0,0,.4-.15.194.194,0,0,1,.035.088.228.228,0,0,1-.017.118.372.372,0,0,1-.189.187.817.817,0,0,1-.387.073,1.7,1.7,0,0,1-.568-.13Z" transform="translate(-680.628 -1517.92)" fill="#262e67"/>
    <path id="Path_75" data-name="Path 75" d="M764.621,1563.162l.048-.194.088.021a.274.274,0,0,0,.218-.019.952.952,0,0,0,.222-.254l1.7-2.487.36.088.338,3.112a.405.405,0,0,0,.074.224.363.363,0,0,0,.193.1l.06.015-.048.194-1.269-.313.047-.194.106.026q.277.068.331-.153a.367.367,0,0,0,.01-.08.8.8,0,0,0,0-.1l-.057-.562-1.213-.3-.295.441a.585.585,0,0,0-.09.188q-.056.226.249.3l.106.026-.048.194-1.125-.277Zm1.348-1.081,1.042.257-.087-.877c-.016-.148-.029-.286-.039-.416a3.641,3.641,0,0,1-.011-.37,2.684,2.684,0,0,1-.161.3c-.059.093-.132.206-.22.337Z" transform="translate(-741.204 -1540.096)" fill="#262e67"/>
    <path id="Path_76" data-name="Path 76" d="M831.381,1570.125l-.547-3.066a.3.3,0,0,0-.293-.3l-.061-.01.032-.2,1.29.208-.032.2-.108-.017q-.282-.045-.317.18a.331.331,0,0,0,0,.081.721.721,0,0,0,.013.1l.271,1.607q.037.218.057.423c.013.137.023.263.03.38.04-.109.087-.225.142-.348s.12-.251.2-.387l.756-1.408c.018-.036.034-.071.048-.1a.439.439,0,0,0,.026-.09c.025-.153-.066-.246-.273-.28l-.108-.017.032-.2,1.144.184-.032.2-.089-.015a.3.3,0,0,0-.22.035.776.776,0,0,0-.2.274l-1.419,2.63-.342-.055Z" transform="translate(-803.509 -1546.075)" fill="#262e67"/>
    <path id="Path_77" data-name="Path 77" d="M885.761,1578.958l.018-.2.062.005a.587.587,0,0,0,.28-.034c.079-.032.126-.123.139-.272l.206-2.3c.014-.148-.016-.246-.089-.292a.59.59,0,0,0-.269-.084l-.062-.005.018-.2,1.376.124-.018.2-.062-.005a.593.593,0,0,0-.28.034c-.079.033-.126.123-.139.271l-.206,2.3q-.02.223.089.292a.591.591,0,0,0,.269.083l.062.005-.018.2-1.377-.124Z" transform="translate(-855.805 -1554.617)" fill="#262e67"/>
    <path id="Path_78" data-name="Path 78" d="M917.321,1582.437l0-.2.09,0a.275.275,0,0,0,.208-.068.966.966,0,0,0,.159-.3l1.1-2.8.37.007,1.024,2.958a.4.4,0,0,0,.123.2.362.362,0,0,0,.21.056h.062l0,.2-1.306-.022,0-.2.109,0c.19,0,.286-.072.289-.223a.391.391,0,0,0-.008-.081.823.823,0,0,0-.027-.1l-.181-.535-1.249-.021-.189.5a.6.6,0,0,0-.046.2c0,.156.1.234.309.238l.109,0,0,.2-1.159-.02Zm1.073-1.355,1.073.018-.281-.836q-.073-.211-.131-.4t-.094-.358a2.722,2.722,0,0,1-.091.326q-.055.156-.139.378l-.337.869Z" transform="translate(-885.661 -1557.919)" fill="#262e67"/>
    <path id="Path_79" data-name="Path 79" d="M976.163,1579.811l-.013-.2.109-.007a.635.635,0,0,0,.269-.073c.075-.041.108-.132.1-.27l-.172-2.631-.455.03a.328.328,0,0,0-.282.135.591.591,0,0,0-.081.279l-.01.205-.247.016-.03-.831,2.669-.174.078.828-.247.016-.037-.2a.593.593,0,0,0-.117-.266.334.334,0,0,0-.3-.1l-.46.03.17,2.607c.01.148.054.24.132.275a.6.6,0,0,0,.279.042l.109-.007.013.2Z" transform="translate(-940.559 -1555.289)" fill="#262e67"/>
    <path id="Path_80" data-name="Path 80" d="M1029.029,1575.684l-.026-.2.061-.008a.59.59,0,0,0,.265-.095c.07-.049.1-.148.076-.3l-.306-2.288c-.019-.147-.07-.236-.151-.265a.592.592,0,0,0-.281-.023l-.061.008-.026-.2,1.37-.183.027.2-.061.008a.592.592,0,0,0-.266.1c-.07.05-.1.148-.076.3l.306,2.288c.019.147.07.236.151.265a.6.6,0,0,0,.281.023l.061-.008.026.2Z" transform="translate(-990.916 -1551.363)" fill="#262e67"/>
    <path id="Path_81" data-name="Path 81" d="M1067.556,1567.588a1.491,1.491,0,0,1-.863-.041,1.314,1.314,0,0,1-.613-.5,2.386,2.386,0,0,1-.351-.867,2.344,2.344,0,0,1-.03-.931,1.3,1.3,0,0,1,.362-.7,1.515,1.515,0,0,1,.775-.385,1.451,1.451,0,0,1,.835.044,1.361,1.361,0,0,1,.621.49,2.526,2.526,0,0,1,.381,1.8,1.383,1.383,0,0,1-.368.7,1.453,1.453,0,0,1-.749.382Zm-.053-.251a.78.78,0,0,0,.65-.541,2.889,2.889,0,0,0-.455-2.145.778.778,0,0,0-.808-.229.793.793,0,0,0-.656.54,2.831,2.831,0,0,0,.455,2.145A.787.787,0,0,0,1067.5,1567.337Z" transform="translate(-1026 -1543.786)" fill="#262e67"/>
    <path id="Path_82" data-name="Path 82" d="M1121.2,1544.126l-.062-.19.059-.019a.581.581,0,0,0,.244-.141q.091-.092.022-.3l-.716-2.215c-.043-.133-.107-.205-.193-.218a.618.618,0,0,0-.277.03l-.059.019-.061-.19.827-.267,2.426,1.977-.647-2c-.042-.133-.107-.205-.193-.218a.618.618,0,0,0-.277.03l-.059.019-.062-.19,1.135-.367.062.19-.059.019a.586.586,0,0,0-.244.142c-.06.061-.067.162-.021.3l.876,2.712-.321.1-2.536-2.056.675,2.088c.046.142.111.22.2.234a.586.586,0,0,0,.28-.028l.059-.019.062.19-1.135.366Z" transform="translate(-1077.552 -1520.844)" fill="#262e67"/>
    <path id="Path_83" data-name="Path 83" d="M1224.244,1520.5l-.086-.18.081-.039a.278.278,0,0,0,.156-.154.956.956,0,0,0,.009-.336l-.274-3,.334-.161,2.243,2.184a.4.4,0,0,0,.2.125.361.361,0,0,0,.213-.045l.056-.027.086.18-1.177.567-.086-.18.1-.048q.257-.124.158-.329a.347.347,0,0,0-.044-.069.737.737,0,0,0-.067-.073l-.4-.4-1.126.542.053.528a.592.592,0,0,0,.05.2c.068.14.195.164.383.074l.1-.048.086.18-1.044.5Zm.35-1.692.967-.466-.626-.621q-.159-.156-.3-.3a3.618,3.618,0,0,1-.244-.278,2.65,2.65,0,0,1,.065.333c.014.109.029.243.045.4Z" transform="translate(-1175.91 -1498.849)" fill="#262e67"/>
    <path id="Path_84" data-name="Path 84" d="M1255.637,1478.619a1.4,1.4,0,0,1-.88.242.985.985,0,0,1-.7-.544l-.952-1.578c-.072-.119-.151-.175-.237-.168a.618.618,0,0,0-.263.092l-.053.032-.1-.171,1.184-.714.1.171-.053.032a.583.583,0,0,0-.205.193q-.067.11.049.3l.956,1.587a.7.7,0,0,0,.494.387.9.9,0,0,0,.578-.146.788.788,0,0,0,.409-.491.748.748,0,0,0-.108-.556l-.976-1.619c-.072-.119-.151-.175-.237-.168a.614.614,0,0,0-.263.092l-.053.032-.1-.171,1.021-.616.1.171-.053.032a.588.588,0,0,0-.205.193c-.045.073-.029.173.049.3l.972,1.611a.954.954,0,0,1,.129.793,1.248,1.248,0,0,1-.6.678Z" transform="translate(-1202.701 -1459.315)" fill="#262e67"/>
    <path id="Path_85" data-name="Path 85" d="M1307.665,1448.546l-.118-.161.088-.065a.637.637,0,0,0,.188-.206c.041-.075.021-.169-.062-.281l-1.559-2.126-.368.27a.328.328,0,0,0-.165.265.6.6,0,0,0,.081.279l.1.179-.2.146-.472-.685,2.156-1.582.511.656-.2.146-.14-.15a.6.6,0,0,0-.242-.161.332.332,0,0,0-.306.08l-.371.272,1.545,2.106q.132.18.259.16a.591.591,0,0,0,.258-.115l.088-.065.118.161-1.191.874Z" transform="translate(-1252.585 -1430.689)" fill="#262e67"/>
    <path id="Path_86" data-name="Path 86" d="M1350.088,1405.608l-.133-.149.046-.041a.592.592,0,0,0,.166-.228q.045-.12-.1-.287l-1.55-1.737q-.139-.156-.264-.121a.614.614,0,0,0-.242.139l-.046.041-.133-.149,1.032-.92.133.149-.046.041a.594.594,0,0,0-.166.228q-.045.121.1.287l.638.716,1.152-1.028-.639-.716q-.148-.167-.273-.135a.59.59,0,0,0-.245.139l-.046.041-.133-.149,1.032-.92.133.149-.046.041a.586.586,0,0,0-.166.228c-.03.08,0,.176.1.287l1.553,1.74c.093.1.18.144.262.119a.647.647,0,0,0,.24-.141l.046-.041.133.149-1.032.92-.133-.149.046-.041a.6.6,0,0,0,.166-.228c.03-.08,0-.176-.1-.287l-.74-.83-1.152,1.028.74.829c.1.111.19.156.273.135a.589.589,0,0,0,.245-.139l.046-.041.133.149-1.031.92Z" transform="translate(-1292.933 -1389.281)" fill="#262e67"/>
    <path id="Path_87" data-name="Path 87" d="M1412.023,1369.1a1.5,1.5,0,0,1-.724.472,1.318,1.318,0,0,1-.787-.045,2.381,2.381,0,0,1-.792-.5,2.342,2.342,0,0,1-.568-.738,1.3,1.3,0,0,1-.112-.776,1.515,1.515,0,0,1,.4-.766,1.453,1.453,0,0,1,.7-.452,1.362,1.362,0,0,1,.79.035,2.523,2.523,0,0,1,1.36,1.237,1.373,1.373,0,0,1,.111.785,1.449,1.449,0,0,1-.385.748Zm-.19-.173a.781.781,0,0,0,.212-.819,2.885,2.885,0,0,0-1.622-1.475.778.778,0,0,0-.79.287.792.792,0,0,0-.216.821,2.832,2.832,0,0,0,1.622,1.475.786.786,0,0,0,.795-.288Z" transform="translate(-1350.822 -1356.592)" fill="#262e67"/>
    <path id="Path_88" data-name="Path 88" d="M1442.507,1324.141l-.16-.119.037-.05a.628.628,0,0,0,.12-.251c.017-.084-.03-.168-.141-.251l-1.883-1.409c-.112-.084-.206-.106-.283-.066a.611.611,0,0,0-.209.184l-.037.05-.16-.119.765-1.023q.731-.978,1.466-.428a.813.813,0,0,1,.278.339.844.844,0,0,1,.063.38,1.512,1.512,0,0,1-.067.359l1.215.1a1.261,1.261,0,0,0,.37-.02.4.4,0,0,0,.233-.152l.009-.011.16.119-.04.053a2.629,2.629,0,0,1-.3.349.536.536,0,0,1-.258.139,1.118,1.118,0,0,1-.342,0l-1.24-.127-.237.316.783.586c.112.084.205.105.281.065a.637.637,0,0,0,.207-.186l.037-.05.16.119-.828,1.107Zm-.819-1.776.2-.266a.721.721,0,0,0,.2-.569.854.854,0,0,0-.353-.457.734.734,0,0,0-.533-.191.806.806,0,0,0-.471.359l-.193.259,1.156.865Z" transform="translate(-1379.929 -1313.269)" fill="#262e67"/>
    <path id="Path_89" data-name="Path 89" d="M1475.711,1287.279l-.168-.108.033-.052a.6.6,0,0,0,.1-.264c.008-.085-.051-.169-.176-.249l-1.94-1.25q-.188-.121-.3-.057a.591.591,0,0,0-.2.2l-.033.052-.168-.108.749-1.162.168.108-.033.052a.6.6,0,0,0-.1.264c-.008.085.051.168.176.249l1.941,1.25c.125.08.225.1.3.057a.591.591,0,0,0,.2-.2l.033-.052.168.108-.749,1.162Z" transform="translate(-1411.214 -1279.041)" fill="#262e67"/>
    <path id="Path_90" data-name="Path 90" d="M1492.306,1241.252l-.175-.1.053-.1a.629.629,0,0,0,.084-.265c.006-.085-.052-.162-.174-.229l-2.308-1.276-.221.4a.328.328,0,0,0-.038.31.6.6,0,0,0,.19.219l.167.12-.119.216-.716-.423,1.294-2.341.739.382-.119.216-.19-.078a.6.6,0,0,0-.287-.045.335.335,0,0,0-.244.2l-.223.4,2.287,1.264q.195.108.3.037a.591.591,0,0,0,.185-.213l.053-.1.175.1-.715,1.293Z" transform="translate(-1426.53 -1235.061)" fill="#262e67"/>
    <path id="Path_91" data-name="Path 91" d="M1516.406,1190.658l-.183-.082.044-.1a.639.639,0,0,0,.062-.272q0-.129-.193-.214l-.82-.366-1.751.182a.8.8,0,0,0-.238.055.283.283,0,0,0-.129.15l-.025.056-.183-.082.532-1.193.182.082-.072.16a.229.229,0,0,0-.027.172.156.156,0,0,0,.081.08.332.332,0,0,0,.133.028,1.279,1.279,0,0,0,.132,0l.724-.062a2.988,2.988,0,0,1,.322-.01c.1,0,.193.007.27.013-.049-.053-.108-.124-.176-.213l-.2-.268-.375-.5a.583.583,0,0,0-.114-.124.538.538,0,0,0-.112-.071q-.191-.085-.307.175l-.056.126-.183-.081.472-1.059.182.081-.023.052a.28.28,0,0,0,0,.2,1.166,1.166,0,0,0,.182.308l.958,1.3.8.356q.2.09.3.011a.589.589,0,0,0,.167-.227l.044-.1.183.082-.6,1.349Z" transform="translate(-1449.177 -1187.24)" fill="#262e67"/>
  </g>
</svg>
